<?xml version="1.0" encoding="utf-8" standalone="no"?>
<!DOCTYPE svg PUBLIC "-//W3C//DTD SVG 1.1//EN"
  "http://www.w3.org/Graphics/SVG/1.1/DTD/svg11.dtd">
<svg xmlns:xlink="http://www.w3.org/1999/xlink" width="381.482187pt" height="311.637187pt" viewBox="0 0 381.482187 311.637187" xmlns="http://www.w3.org/2000/svg" version="1.1">
 <metadata>
  <rdf:RDF xmlns:dc="http://purl.org/dc/elements/1.1/" xmlns:cc="http://creativecommons.org/ns#" xmlns:rdf="http://www.w3.org/1999/02/22-rdf-syntax-ns#">
   <cc:Work>
    <dc:type rdf:resource="http://purl.org/dc/dcmitype/StillImage"/>
    <dc:date>2026-03-26T07:21:10.214188</dc:date>
    <dc:format>image/svg+xml</dc:format>
    <dc:creator>
     <cc:Agent>
      <dc:title>Matplotlib v3.10.8, https://matplotlib.org/</dc:title>
     </cc:Agent>
    </dc:creator>
   </cc:Work>
  </rdf:RDF>
 </metadata>
 <defs>
  <style type="text/css">*{stroke-linejoin: round; stroke-linecap: butt}</style>
 </defs>
 <g id="figure_1">
  <g id="patch_1">
   <path d="M 0 311.637187 
L 381.482187 311.637187 
L 381.482187 0 
L 0 0 
z
" style="fill: #ffffff"/>
  </g>
  <g id="axes_1">
   <g id="patch_2">
    <path d="M 39.722188 136.531364 
L 190.802188 136.531364 
L 190.802188 21.662727 
L 39.722188 21.662727 
z
" style="fill: #ffffff"/>
   </g>
   <g id="patch_3">
    <path d="M 46.58946 136.531364 
L 53.456733 136.531364 
L 53.456733 108.955311 
L 46.58946 108.955311 
z
" clip-path="url(#pd51fec9035)" style="fill: #ee6677; opacity: 0.6"/>
   </g>
   <g id="patch_4">
    <path d="M 53.456733 136.531364 
L 60.324006 136.531364 
L 60.324006 108.955311 
L 53.456733 108.955311 
z
" clip-path="url(#pd51fec9035)" style="fill: #ee6677; opacity: 0.6"/>
   </g>
   <g id="patch_5">
    <path d="M 60.324006 136.531364 
L 67.191278 136.531364 
L 67.191278 81.379258 
L 60.324006 81.379258 
z
" clip-path="url(#pd51fec9035)" style="fill: #ee6677; opacity: 0.6"/>
   </g>
   <g id="patch_6">
    <path d="M 67.191278 136.531364 
L 74.058551 136.531364 
L 74.058551 97.92489 
L 67.191278 97.92489 
z
" clip-path="url(#pd51fec9035)" style="fill: #ee6677; opacity: 0.6"/>
   </g>
   <g id="patch_7">
    <path d="M 74.058551 136.531364 
L 80.925824 136.531364 
L 80.925824 103.4401 
L 74.058551 103.4401 
z
" clip-path="url(#pd51fec9035)" style="fill: #ee6677; opacity: 0.6"/>
   </g>
   <g id="patch_8">
    <path d="M 80.925824 136.531364 
L 87.793097 136.531364 
L 87.793097 103.4401 
L 80.925824 103.4401 
z
" clip-path="url(#pd51fec9035)" style="fill: #ee6677; opacity: 0.6"/>
   </g>
   <g id="patch_9">
    <path d="M 87.793097 136.531364 
L 94.660369 136.531364 
L 94.660369 81.379258 
L 87.793097 81.379258 
z
" clip-path="url(#pd51fec9035)" style="fill: #ee6677; opacity: 0.6"/>
   </g>
   <g id="patch_10">
    <path d="M 94.660369 136.531364 
L 101.527642 136.531364 
L 101.527642 108.955311 
L 94.660369 108.955311 
z
" clip-path="url(#pd51fec9035)" style="fill: #ee6677; opacity: 0.6"/>
   </g>
   <g id="patch_11">
    <path d="M 101.527642 136.531364 
L 108.394915 136.531364 
L 108.394915 86.894469 
L 101.527642 86.894469 
z
" clip-path="url(#pd51fec9035)" style="fill: #ee6677; opacity: 0.6"/>
   </g>
   <g id="patch_12">
    <path d="M 108.394915 136.531364 
L 115.262188 136.531364 
L 115.262188 92.409679 
L 108.394915 92.409679 
z
" clip-path="url(#pd51fec9035)" style="fill: #ee6677; opacity: 0.6"/>
   </g>
   <g id="patch_13">
    <path d="M 115.262188 136.531364 
L 122.12946 136.531364 
L 122.12946 92.409679 
L 115.262188 92.409679 
z
" clip-path="url(#pd51fec9035)" style="fill: #ee6677; opacity: 0.6"/>
   </g>
   <g id="patch_14">
    <path d="M 122.12946 136.531364 
L 128.996733 136.531364 
L 128.996733 108.955311 
L 122.12946 108.955311 
z
" clip-path="url(#pd51fec9035)" style="fill: #ee6677; opacity: 0.6"/>
   </g>
   <g id="patch_15">
    <path d="M 128.996733 136.531364 
L 135.864006 136.531364 
L 135.864006 114.470521 
L 128.996733 114.470521 
z
" clip-path="url(#pd51fec9035)" style="fill: #ee6677; opacity: 0.6"/>
   </g>
   <g id="patch_16">
    <path d="M 135.864006 136.531364 
L 142.731278 136.531364 
L 142.731278 103.4401 
L 135.864006 103.4401 
z
" clip-path="url(#pd51fec9035)" style="fill: #ee6677; opacity: 0.6"/>
   </g>
   <g id="patch_17">
    <path d="M 142.731278 136.531364 
L 149.598551 136.531364 
L 149.598551 125.500943 
L 142.731278 125.500943 
z
" clip-path="url(#pd51fec9035)" style="fill: #ee6677; opacity: 0.6"/>
   </g>
   <g id="patch_18">
    <path d="M 149.598551 136.531364 
L 156.465824 136.531364 
L 156.465824 136.531364 
L 149.598551 136.531364 
z
" clip-path="url(#pd51fec9035)" style="fill: #ee6677; opacity: 0.6"/>
   </g>
   <g id="patch_19">
    <path d="M 156.465824 136.531364 
L 163.333097 136.531364 
L 163.333097 131.016153 
L 156.465824 131.016153 
z
" clip-path="url(#pd51fec9035)" style="fill: #ee6677; opacity: 0.6"/>
   </g>
   <g id="patch_20">
    <path d="M 163.333097 136.531364 
L 170.200369 136.531364 
L 170.200369 131.016153 
L 163.333097 131.016153 
z
" clip-path="url(#pd51fec9035)" style="fill: #ee6677; opacity: 0.6"/>
   </g>
   <g id="patch_21">
    <path d="M 170.200369 136.531364 
L 177.067642 136.531364 
L 177.067642 136.531364 
L 170.200369 136.531364 
z
" clip-path="url(#pd51fec9035)" style="fill: #ee6677; opacity: 0.6"/>
   </g>
   <g id="patch_22">
    <path d="M 177.067642 136.531364 
L 183.934915 136.531364 
L 183.934915 125.500943 
L 177.067642 125.500943 
z
" clip-path="url(#pd51fec9035)" style="fill: #ee6677; opacity: 0.6"/>
   </g>
   <g id="patch_23">
    <path d="M 54.762975 136.531364 
L 59.33289 136.531364 
L 59.33289 116.640691 
L 54.762975 116.640691 
z
" clip-path="url(#pd51fec9035)" style="fill: #4477aa; opacity: 0.6"/>
   </g>
   <g id="patch_24">
    <path d="M 59.33289 136.531364 
L 63.902805 136.531364 
L 63.902805 85.147125 
L 59.33289 85.147125 
z
" clip-path="url(#pd51fec9035)" style="fill: #4477aa; opacity: 0.6"/>
   </g>
   <g id="patch_25">
    <path d="M 63.902805 136.531364 
L 68.472721 136.531364 
L 68.472721 70.22912 
L 63.902805 70.22912 
z
" clip-path="url(#pd51fec9035)" style="fill: #4477aa; opacity: 0.6"/>
   </g>
   <g id="patch_26">
    <path d="M 68.472721 136.531364 
L 73.042636 136.531364 
L 73.042636 27.132662 
L 68.472721 27.132662 
z
" clip-path="url(#pd51fec9035)" style="fill: #4477aa; opacity: 0.6"/>
   </g>
   <g id="patch_27">
    <path d="M 73.042636 136.531364 
L 77.612551 136.531364 
L 77.612551 91.777349 
L 73.042636 91.777349 
z
" clip-path="url(#pd51fec9035)" style="fill: #4477aa; opacity: 0.6"/>
   </g>
   <g id="patch_28">
    <path d="M 77.612551 136.531364 
L 82.182467 136.531364 
L 82.182467 55.311116 
L 77.612551 55.311116 
z
" clip-path="url(#pd51fec9035)" style="fill: #4477aa; opacity: 0.6"/>
   </g>
   <g id="patch_29">
    <path d="M 82.182467 136.531364 
L 86.752382 136.531364 
L 86.752382 91.777349 
L 82.182467 91.777349 
z
" clip-path="url(#pd51fec9035)" style="fill: #4477aa; opacity: 0.6"/>
   </g>
   <g id="patch_30">
    <path d="M 86.752382 136.531364 
L 91.322297 136.531364 
L 91.322297 73.544233 
L 86.752382 73.544233 
z
" clip-path="url(#pd51fec9035)" style="fill: #4477aa; opacity: 0.6"/>
   </g>
   <g id="patch_31">
    <path d="M 91.322297 136.531364 
L 95.892213 136.531364 
L 95.892213 78.516901 
L 91.322297 78.516901 
z
" clip-path="url(#pd51fec9035)" style="fill: #4477aa; opacity: 0.6"/>
   </g>
   <g id="patch_32">
    <path d="M 95.892213 136.531364 
L 100.462128 136.531364 
L 100.462128 118.298247 
L 95.892213 118.298247 
z
" clip-path="url(#pd51fec9035)" style="fill: #4477aa; opacity: 0.6"/>
   </g>
   <g id="patch_33">
    <path d="M 100.462128 136.531364 
L 105.032043 136.531364 
L 105.032043 124.928471 
L 100.462128 124.928471 
z
" clip-path="url(#pd51fec9035)" style="fill: #4477aa; opacity: 0.6"/>
   </g>
   <g id="patch_34">
    <path d="M 105.032043 136.531364 
L 109.601959 136.531364 
L 109.601959 123.270915 
L 105.032043 123.270915 
z
" clip-path="url(#pd51fec9035)" style="fill: #4477aa; opacity: 0.6"/>
   </g>
   <g id="patch_35">
    <path d="M 109.601959 136.531364 
L 114.171874 136.531364 
L 114.171874 90.119793 
L 109.601959 90.119793 
z
" clip-path="url(#pd51fec9035)" style="fill: #4477aa; opacity: 0.6"/>
   </g>
   <g id="patch_36">
    <path d="M 114.171874 136.531364 
L 118.74179 136.531364 
L 118.74179 80.174457 
L 114.171874 80.174457 
z
" clip-path="url(#pd51fec9035)" style="fill: #4477aa; opacity: 0.6"/>
   </g>
   <g id="patch_37">
    <path d="M 118.74179 136.531364 
L 123.311705 136.531364 
L 123.311705 86.804681 
L 118.74179 86.804681 
z
" clip-path="url(#pd51fec9035)" style="fill: #4477aa; opacity: 0.6"/>
   </g>
   <g id="patch_38">
    <path d="M 123.311705 136.531364 
L 127.88162 136.531364 
L 127.88162 124.928471 
L 123.311705 124.928471 
z
" clip-path="url(#pd51fec9035)" style="fill: #4477aa; opacity: 0.6"/>
   </g>
   <g id="patch_39">
    <path d="M 127.88162 136.531364 
L 132.451536 136.531364 
L 132.451536 124.928471 
L 127.88162 124.928471 
z
" clip-path="url(#pd51fec9035)" style="fill: #4477aa; opacity: 0.6"/>
   </g>
   <g id="patch_40">
    <path d="M 132.451536 136.531364 
L 137.021451 136.531364 
L 137.021451 111.668022 
L 132.451536 111.668022 
z
" clip-path="url(#pd51fec9035)" style="fill: #4477aa; opacity: 0.6"/>
   </g>
   <g id="patch_41">
    <path d="M 137.021451 136.531364 
L 141.591366 136.531364 
L 141.591366 119.955803 
L 137.021451 119.955803 
z
" clip-path="url(#pd51fec9035)" style="fill: #4477aa; opacity: 0.6"/>
   </g>
   <g id="patch_42">
    <path d="M 141.591366 136.531364 
L 146.161282 136.531364 
L 146.161282 106.695354 
L 141.591366 106.695354 
z
" clip-path="url(#pd51fec9035)" style="fill: #4477aa; opacity: 0.6"/>
   </g>
   <g id="matplotlib.axis_1">
    <g id="xtick_1">
     <g id="line2d_1">
      <defs>
       <path id="m4a5fe8b382" d="M 0 0 
L 0 3 
" style="stroke: #000000; stroke-width: 0.5"/>
      </defs>
      <g>
       <use xlink:href="#m4a5fe8b382" x="66.718269" y="136.531364" style="stroke: #000000; stroke-width: 0.5"/>
      </g>
     </g>
     <g id="text_1">
      <!-- 300 -->
      <g transform="translate(60.037644 148.35027) scale(0.07 -0.07)">
       <defs>
        <path id="DejaVuSans-33" d="M 2597 2516 
Q 3050 2419 3304 2112 
Q 3559 1806 3559 1356 
Q 3559 666 3084 287 
Q 2609 -91 1734 -91 
Q 1441 -91 1130 -33 
Q 819 25 488 141 
L 488 750 
Q 750 597 1062 519 
Q 1375 441 1716 441 
Q 2309 441 2620 675 
Q 2931 909 2931 1356 
Q 2931 1769 2642 2001 
Q 2353 2234 1838 2234 
L 1294 2234 
L 1294 2753 
L 1863 2753 
Q 2328 2753 2575 2939 
Q 2822 3125 2822 3475 
Q 2822 3834 2567 4026 
Q 2313 4219 1838 4219 
Q 1578 4219 1281 4162 
Q 984 4106 628 3988 
L 628 4550 
Q 988 4650 1302 4700 
Q 1616 4750 1894 4750 
Q 2613 4750 3031 4423 
Q 3450 4097 3450 3541 
Q 3450 3153 3228 2886 
Q 3006 2619 2597 2516 
z
" transform="scale(0.015625)"/>
        <path id="DejaVuSans-30" d="M 2034 4250 
Q 1547 4250 1301 3770 
Q 1056 3291 1056 2328 
Q 1056 1369 1301 889 
Q 1547 409 2034 409 
Q 2525 409 2770 889 
Q 3016 1369 3016 2328 
Q 3016 3291 2770 3770 
Q 2525 4250 2034 4250 
z
M 2034 4750 
Q 2819 4750 3233 4129 
Q 3647 3509 3647 2328 
Q 3647 1150 3233 529 
Q 2819 -91 2034 -91 
Q 1250 -91 836 529 
Q 422 1150 422 2328 
Q 422 3509 836 4129 
Q 1250 4750 2034 4750 
z
" transform="scale(0.015625)"/>
       </defs>
       <use xlink:href="#DejaVuSans-33"/>
       <use xlink:href="#DejaVuSans-30" transform="translate(63.623047 0)"/>
       <use xlink:href="#DejaVuSans-30" transform="translate(127.246094 0)"/>
      </g>
     </g>
    </g>
    <g id="xtick_2">
     <g id="line2d_2">
      <g>
       <use xlink:href="#m4a5fe8b382" x="100.435997" y="136.531364" style="stroke: #000000; stroke-width: 0.5"/>
      </g>
     </g>
     <g id="text_2">
      <!-- 400 -->
      <g transform="translate(93.755372 148.35027) scale(0.07 -0.07)">
       <defs>
        <path id="DejaVuSans-34" d="M 2419 4116 
L 825 1625 
L 2419 1625 
L 2419 4116 
z
M 2253 4666 
L 3047 4666 
L 3047 1625 
L 3713 1625 
L 3713 1100 
L 3047 1100 
L 3047 0 
L 2419 0 
L 2419 1100 
L 313 1100 
L 313 1709 
L 2253 4666 
z
" transform="scale(0.015625)"/>
       </defs>
       <use xlink:href="#DejaVuSans-34"/>
       <use xlink:href="#DejaVuSans-30" transform="translate(63.623047 0)"/>
       <use xlink:href="#DejaVuSans-30" transform="translate(127.246094 0)"/>
      </g>
     </g>
    </g>
    <g id="xtick_3">
     <g id="line2d_3">
      <g>
       <use xlink:href="#m4a5fe8b382" x="134.153725" y="136.531364" style="stroke: #000000; stroke-width: 0.5"/>
      </g>
     </g>
     <g id="text_3">
      <!-- 500 -->
      <g transform="translate(127.4731 148.35027) scale(0.07 -0.07)">
       <defs>
        <path id="DejaVuSans-35" d="M 691 4666 
L 3169 4666 
L 3169 4134 
L 1269 4134 
L 1269 2991 
Q 1406 3038 1543 3061 
Q 1681 3084 1819 3084 
Q 2600 3084 3056 2656 
Q 3513 2228 3513 1497 
Q 3513 744 3044 326 
Q 2575 -91 1722 -91 
Q 1428 -91 1123 -41 
Q 819 9 494 109 
L 494 744 
Q 775 591 1075 516 
Q 1375 441 1709 441 
Q 2250 441 2565 725 
Q 2881 1009 2881 1497 
Q 2881 1984 2565 2268 
Q 2250 2553 1709 2553 
Q 1456 2553 1204 2497 
Q 953 2441 691 2322 
L 691 4666 
z
" transform="scale(0.015625)"/>
       </defs>
       <use xlink:href="#DejaVuSans-35"/>
       <use xlink:href="#DejaVuSans-30" transform="translate(63.623047 0)"/>
       <use xlink:href="#DejaVuSans-30" transform="translate(127.246094 0)"/>
      </g>
     </g>
    </g>
    <g id="xtick_4">
     <g id="line2d_4">
      <g>
       <use xlink:href="#m4a5fe8b382" x="167.871452" y="136.531364" style="stroke: #000000; stroke-width: 0.5"/>
      </g>
     </g>
     <g id="text_4">
      <!-- 600 -->
      <g transform="translate(161.190827 148.35027) scale(0.07 -0.07)">
       <defs>
        <path id="DejaVuSans-36" d="M 2113 2584 
Q 1688 2584 1439 2293 
Q 1191 2003 1191 1497 
Q 1191 994 1439 701 
Q 1688 409 2113 409 
Q 2538 409 2786 701 
Q 3034 994 3034 1497 
Q 3034 2003 2786 2293 
Q 2538 2584 2113 2584 
z
M 3366 4563 
L 3366 3988 
Q 3128 4100 2886 4159 
Q 2644 4219 2406 4219 
Q 1781 4219 1451 3797 
Q 1122 3375 1075 2522 
Q 1259 2794 1537 2939 
Q 1816 3084 2150 3084 
Q 2853 3084 3261 2657 
Q 3669 2231 3669 1497 
Q 3669 778 3244 343 
Q 2819 -91 2113 -91 
Q 1303 -91 875 529 
Q 447 1150 447 2328 
Q 447 3434 972 4092 
Q 1497 4750 2381 4750 
Q 2619 4750 2861 4703 
Q 3103 4656 3366 4563 
z
" transform="scale(0.015625)"/>
       </defs>
       <use xlink:href="#DejaVuSans-36"/>
       <use xlink:href="#DejaVuSans-30" transform="translate(63.623047 0)"/>
       <use xlink:href="#DejaVuSans-30" transform="translate(127.246094 0)"/>
      </g>
     </g>
    </g>
    <g id="text_5">
     <!-- MW Da -->
     <g transform="translate(101.053438 159.884801) scale(0.08 -0.08)">
      <defs>
       <path id="DejaVuSans-4d" d="M 628 4666 
L 1569 4666 
L 2759 1491 
L 3956 4666 
L 4897 4666 
L 4897 0 
L 4281 0 
L 4281 4097 
L 3078 897 
L 2444 897 
L 1241 4097 
L 1241 0 
L 628 0 
L 628 4666 
z
" transform="scale(0.015625)"/>
       <path id="DejaVuSans-57" d="M 213 4666 
L 850 4666 
L 1831 722 
L 2809 4666 
L 3519 4666 
L 4500 722 
L 5478 4666 
L 6119 4666 
L 4947 0 
L 4153 0 
L 3169 4050 
L 2175 0 
L 1381 0 
L 213 4666 
z
" transform="scale(0.015625)"/>
       <path id="DejaVuSans-20" transform="scale(0.015625)"/>
       <path id="DejaVuSans-44" d="M 1259 4147 
L 1259 519 
L 2022 519 
Q 2988 519 3436 956 
Q 3884 1394 3884 2338 
Q 3884 3275 3436 3711 
Q 2988 4147 2022 4147 
L 1259 4147 
z
M 628 4666 
L 1925 4666 
Q 3281 4666 3915 4102 
Q 4550 3538 4550 2338 
Q 4550 1131 3912 565 
Q 3275 0 1925 0 
L 628 0 
L 628 4666 
z
" transform="scale(0.015625)"/>
       <path id="DejaVuSans-61" d="M 2194 1759 
Q 1497 1759 1228 1600 
Q 959 1441 959 1056 
Q 959 750 1161 570 
Q 1363 391 1709 391 
Q 2188 391 2477 730 
Q 2766 1069 2766 1631 
L 2766 1759 
L 2194 1759 
z
M 3341 1997 
L 3341 0 
L 2766 0 
L 2766 531 
Q 2569 213 2275 61 
Q 1981 -91 1556 -91 
Q 1019 -91 701 211 
Q 384 513 384 1019 
Q 384 1609 779 1909 
Q 1175 2209 1959 2209 
L 2766 2209 
L 2766 2266 
Q 2766 2663 2505 2880 
Q 2244 3097 1772 3097 
Q 1472 3097 1187 3025 
Q 903 2953 641 2809 
L 641 3341 
Q 956 3463 1253 3523 
Q 1550 3584 1831 3584 
Q 2591 3584 2966 3190 
Q 3341 2797 3341 1997 
z
" transform="scale(0.015625)"/>
      </defs>
      <use xlink:href="#DejaVuSans-4d"/>
      <use xlink:href="#DejaVuSans-57" transform="translate(86.279297 0)"/>
      <use xlink:href="#DejaVuSans-20" transform="translate(185.15625 0)"/>
      <use xlink:href="#DejaVuSans-44" transform="translate(216.943359 0)"/>
      <use xlink:href="#DejaVuSans-61" transform="translate(293.945312 0)"/>
     </g>
    </g>
   </g>
   <g id="matplotlib.axis_2">
    <g id="ytick_1">
     <g id="line2d_5">
      <defs>
       <path id="m83eb2e55ab" d="M 0 0 
L -3 0 
" style="stroke: #000000; stroke-width: 0.5"/>
      </defs>
      <g>
       <use xlink:href="#m83eb2e55ab" x="39.722188" y="136.531364" style="stroke: #000000; stroke-width: 0.5"/>
      </g>
     </g>
     <g id="text_6">
      <!-- 0.000 -->
      <g transform="translate(13.1825 139.190817) scale(0.07 -0.07)">
       <defs>
        <path id="DejaVuSans-2e" d="M 684 794 
L 1344 794 
L 1344 0 
L 684 0 
L 684 794 
z
" transform="scale(0.015625)"/>
       </defs>
       <use xlink:href="#DejaVuSans-30"/>
       <use xlink:href="#DejaVuSans-2e" transform="translate(63.623047 0)"/>
       <use xlink:href="#DejaVuSans-30" transform="translate(95.410156 0)"/>
       <use xlink:href="#DejaVuSans-30" transform="translate(159.033203 0)"/>
       <use xlink:href="#DejaVuSans-30" transform="translate(222.65625 0)"/>
      </g>
     </g>
    </g>
    <g id="ytick_2">
     <g id="line2d_6">
      <g>
       <use xlink:href="#m83eb2e55ab" x="39.722188" y="114.06576" style="stroke: #000000; stroke-width: 0.5"/>
      </g>
     </g>
     <g id="text_7">
      <!-- 0.002 -->
      <g transform="translate(13.1825 116.725213) scale(0.07 -0.07)">
       <defs>
        <path id="DejaVuSans-32" d="M 1228 531 
L 3431 531 
L 3431 0 
L 469 0 
L 469 531 
Q 828 903 1448 1529 
Q 2069 2156 2228 2338 
Q 2531 2678 2651 2914 
Q 2772 3150 2772 3378 
Q 2772 3750 2511 3984 
Q 2250 4219 1831 4219 
Q 1534 4219 1204 4116 
Q 875 4013 500 3803 
L 500 4441 
Q 881 4594 1212 4672 
Q 1544 4750 1819 4750 
Q 2544 4750 2975 4387 
Q 3406 4025 3406 3419 
Q 3406 3131 3298 2873 
Q 3191 2616 2906 2266 
Q 2828 2175 2409 1742 
Q 1991 1309 1228 531 
z
" transform="scale(0.015625)"/>
       </defs>
       <use xlink:href="#DejaVuSans-30"/>
       <use xlink:href="#DejaVuSans-2e" transform="translate(63.623047 0)"/>
       <use xlink:href="#DejaVuSans-30" transform="translate(95.410156 0)"/>
       <use xlink:href="#DejaVuSans-30" transform="translate(159.033203 0)"/>
       <use xlink:href="#DejaVuSans-32" transform="translate(222.65625 0)"/>
      </g>
     </g>
    </g>
    <g id="ytick_3">
     <g id="line2d_7">
      <g>
       <use xlink:href="#m83eb2e55ab" x="39.722188" y="91.600157" style="stroke: #000000; stroke-width: 0.5"/>
      </g>
     </g>
     <g id="text_8">
      <!-- 0.004 -->
      <g transform="translate(13.1825 94.25961) scale(0.07 -0.07)">
       <use xlink:href="#DejaVuSans-30"/>
       <use xlink:href="#DejaVuSans-2e" transform="translate(63.623047 0)"/>
       <use xlink:href="#DejaVuSans-30" transform="translate(95.410156 0)"/>
       <use xlink:href="#DejaVuSans-30" transform="translate(159.033203 0)"/>
       <use xlink:href="#DejaVuSans-34" transform="translate(222.65625 0)"/>
      </g>
     </g>
    </g>
    <g id="ytick_4">
     <g id="line2d_8">
      <g>
       <use xlink:href="#m83eb2e55ab" x="39.722188" y="69.134553" style="stroke: #000000; stroke-width: 0.5"/>
      </g>
     </g>
     <g id="text_9">
      <!-- 0.006 -->
      <g transform="translate(13.1825 71.794006) scale(0.07 -0.07)">
       <use xlink:href="#DejaVuSans-30"/>
       <use xlink:href="#DejaVuSans-2e" transform="translate(63.623047 0)"/>
       <use xlink:href="#DejaVuSans-30" transform="translate(95.410156 0)"/>
       <use xlink:href="#DejaVuSans-30" transform="translate(159.033203 0)"/>
       <use xlink:href="#DejaVuSans-36" transform="translate(222.65625 0)"/>
      </g>
     </g>
    </g>
    <g id="ytick_5">
     <g id="line2d_9">
      <g>
       <use xlink:href="#m83eb2e55ab" x="39.722188" y="46.66895" style="stroke: #000000; stroke-width: 0.5"/>
      </g>
     </g>
     <g id="text_10">
      <!-- 0.008 -->
      <g transform="translate(13.1825 49.328403) scale(0.07 -0.07)">
       <defs>
        <path id="DejaVuSans-38" d="M 2034 2216 
Q 1584 2216 1326 1975 
Q 1069 1734 1069 1313 
Q 1069 891 1326 650 
Q 1584 409 2034 409 
Q 2484 409 2743 651 
Q 3003 894 3003 1313 
Q 3003 1734 2745 1975 
Q 2488 2216 2034 2216 
z
M 1403 2484 
Q 997 2584 770 2862 
Q 544 3141 544 3541 
Q 544 4100 942 4425 
Q 1341 4750 2034 4750 
Q 2731 4750 3128 4425 
Q 3525 4100 3525 3541 
Q 3525 3141 3298 2862 
Q 3072 2584 2669 2484 
Q 3125 2378 3379 2068 
Q 3634 1759 3634 1313 
Q 3634 634 3220 271 
Q 2806 -91 2034 -91 
Q 1263 -91 848 271 
Q 434 634 434 1313 
Q 434 1759 690 2068 
Q 947 2378 1403 2484 
z
M 1172 3481 
Q 1172 3119 1398 2916 
Q 1625 2713 2034 2713 
Q 2441 2713 2670 2916 
Q 2900 3119 2900 3481 
Q 2900 3844 2670 4047 
Q 2441 4250 2034 4250 
Q 1625 4250 1398 4047 
Q 1172 3844 1172 3481 
z
" transform="scale(0.015625)"/>
       </defs>
       <use xlink:href="#DejaVuSans-30"/>
       <use xlink:href="#DejaVuSans-2e" transform="translate(63.623047 0)"/>
       <use xlink:href="#DejaVuSans-30" transform="translate(95.410156 0)"/>
       <use xlink:href="#DejaVuSans-30" transform="translate(159.033203 0)"/>
       <use xlink:href="#DejaVuSans-38" transform="translate(222.65625 0)"/>
      </g>
     </g>
    </g>
    <g id="ytick_6">
     <g id="line2d_10">
      <g>
       <use xlink:href="#m83eb2e55ab" x="39.722188" y="24.203346" style="stroke: #000000; stroke-width: 0.5"/>
      </g>
     </g>
     <g id="text_11">
      <!-- 0.010 -->
      <g transform="translate(13.1825 26.862799) scale(0.07 -0.07)">
       <defs>
        <path id="DejaVuSans-31" d="M 794 531 
L 1825 531 
L 1825 4091 
L 703 3866 
L 703 4441 
L 1819 4666 
L 2450 4666 
L 2450 531 
L 3481 531 
L 3481 0 
L 794 0 
L 794 531 
z
" transform="scale(0.015625)"/>
       </defs>
       <use xlink:href="#DejaVuSans-30"/>
       <use xlink:href="#DejaVuSans-2e" transform="translate(63.623047 0)"/>
       <use xlink:href="#DejaVuSans-30" transform="translate(95.410156 0)"/>
       <use xlink:href="#DejaVuSans-31" transform="translate(159.033203 0)"/>
       <use xlink:href="#DejaVuSans-30" transform="translate(222.65625 0)"/>
      </g>
     </g>
    </g>
    <g id="text_12">
     <!-- Density -->
     <g transform="translate(7.51875 94.30392) rotate(-90) scale(0.08 -0.08)">
      <defs>
       <path id="DejaVuSans-65" d="M 3597 1894 
L 3597 1613 
L 953 1613 
Q 991 1019 1311 708 
Q 1631 397 2203 397 
Q 2534 397 2845 478 
Q 3156 559 3463 722 
L 3463 178 
Q 3153 47 2828 -22 
Q 2503 -91 2169 -91 
Q 1331 -91 842 396 
Q 353 884 353 1716 
Q 353 2575 817 3079 
Q 1281 3584 2069 3584 
Q 2775 3584 3186 3129 
Q 3597 2675 3597 1894 
z
M 3022 2063 
Q 3016 2534 2758 2815 
Q 2500 3097 2075 3097 
Q 1594 3097 1305 2825 
Q 1016 2553 972 2059 
L 3022 2063 
z
" transform="scale(0.015625)"/>
       <path id="DejaVuSans-6e" d="M 3513 2113 
L 3513 0 
L 2938 0 
L 2938 2094 
Q 2938 2591 2744 2837 
Q 2550 3084 2163 3084 
Q 1697 3084 1428 2787 
Q 1159 2491 1159 1978 
L 1159 0 
L 581 0 
L 581 3500 
L 1159 3500 
L 1159 2956 
Q 1366 3272 1645 3428 
Q 1925 3584 2291 3584 
Q 2894 3584 3203 3211 
Q 3513 2838 3513 2113 
z
" transform="scale(0.015625)"/>
       <path id="DejaVuSans-73" d="M 2834 3397 
L 2834 2853 
Q 2591 2978 2328 3040 
Q 2066 3103 1784 3103 
Q 1356 3103 1142 2972 
Q 928 2841 928 2578 
Q 928 2378 1081 2264 
Q 1234 2150 1697 2047 
L 1894 2003 
Q 2506 1872 2764 1633 
Q 3022 1394 3022 966 
Q 3022 478 2636 193 
Q 2250 -91 1575 -91 
Q 1294 -91 989 -36 
Q 684 19 347 128 
L 347 722 
Q 666 556 975 473 
Q 1284 391 1588 391 
Q 1994 391 2212 530 
Q 2431 669 2431 922 
Q 2431 1156 2273 1281 
Q 2116 1406 1581 1522 
L 1381 1569 
Q 847 1681 609 1914 
Q 372 2147 372 2553 
Q 372 3047 722 3315 
Q 1072 3584 1716 3584 
Q 2034 3584 2315 3537 
Q 2597 3491 2834 3397 
z
" transform="scale(0.015625)"/>
       <path id="DejaVuSans-69" d="M 603 3500 
L 1178 3500 
L 1178 0 
L 603 0 
L 603 3500 
z
M 603 4863 
L 1178 4863 
L 1178 4134 
L 603 4134 
L 603 4863 
z
" transform="scale(0.015625)"/>
       <path id="DejaVuSans-74" d="M 1172 4494 
L 1172 3500 
L 2356 3500 
L 2356 3053 
L 1172 3053 
L 1172 1153 
Q 1172 725 1289 603 
Q 1406 481 1766 481 
L 2356 481 
L 2356 0 
L 1766 0 
Q 1100 0 847 248 
Q 594 497 594 1153 
L 594 3053 
L 172 3053 
L 172 3500 
L 594 3500 
L 594 4494 
L 1172 4494 
z
" transform="scale(0.015625)"/>
       <path id="DejaVuSans-79" d="M 2059 -325 
Q 1816 -950 1584 -1140 
Q 1353 -1331 966 -1331 
L 506 -1331 
L 506 -850 
L 844 -850 
Q 1081 -850 1212 -737 
Q 1344 -625 1503 -206 
L 1606 56 
L 191 3500 
L 800 3500 
L 1894 763 
L 2988 3500 
L 3597 3500 
L 2059 -325 
z
" transform="scale(0.015625)"/>
      </defs>
      <use xlink:href="#DejaVuSans-44"/>
      <use xlink:href="#DejaVuSans-65" transform="translate(77.001953 0)"/>
      <use xlink:href="#DejaVuSans-6e" transform="translate(138.525391 0)"/>
      <use xlink:href="#DejaVuSans-73" transform="translate(201.904297 0)"/>
      <use xlink:href="#DejaVuSans-69" transform="translate(254.003906 0)"/>
      <use xlink:href="#DejaVuSans-74" transform="translate(281.787109 0)"/>
      <use xlink:href="#DejaVuSans-79" transform="translate(320.996094 0)"/>
     </g>
    </g>
   </g>
   <g id="patch_43">
    <path d="M 39.722188 136.531364 
L 39.722188 21.662727 
" style="fill: none; stroke: #000000; stroke-width: 0.5; stroke-linejoin: miter; stroke-linecap: square"/>
   </g>
   <g id="patch_44">
    <path d="M 39.722188 136.531364 
L 190.802188 136.531364 
" style="fill: none; stroke: #000000; stroke-width: 0.5; stroke-linejoin: miter; stroke-linecap: square"/>
   </g>
   <g id="legend_1">
    <g id="patch_45">
     <path d="M 146.643125 31.62179 
L 158.643125 31.62179 
L 158.643125 27.42179 
L 146.643125 27.42179 
z
" style="fill: #ee6677; opacity: 0.6"/>
    </g>
    <g id="text_13">
     <!-- Actives -->
     <g transform="translate(163.443125 31.62179) scale(0.06 -0.06)">
      <defs>
       <path id="DejaVuSans-41" d="M 2188 4044 
L 1331 1722 
L 3047 1722 
L 2188 4044 
z
M 1831 4666 
L 2547 4666 
L 4325 0 
L 3669 0 
L 3244 1197 
L 1141 1197 
L 716 0 
L 50 0 
L 1831 4666 
z
" transform="scale(0.015625)"/>
       <path id="DejaVuSans-63" d="M 3122 3366 
L 3122 2828 
Q 2878 2963 2633 3030 
Q 2388 3097 2138 3097 
Q 1578 3097 1268 2742 
Q 959 2388 959 1747 
Q 959 1106 1268 751 
Q 1578 397 2138 397 
Q 2388 397 2633 464 
Q 2878 531 3122 666 
L 3122 134 
Q 2881 22 2623 -34 
Q 2366 -91 2075 -91 
Q 1284 -91 818 406 
Q 353 903 353 1747 
Q 353 2603 823 3093 
Q 1294 3584 2113 3584 
Q 2378 3584 2631 3529 
Q 2884 3475 3122 3366 
z
" transform="scale(0.015625)"/>
       <path id="DejaVuSans-76" d="M 191 3500 
L 800 3500 
L 1894 563 
L 2988 3500 
L 3597 3500 
L 2284 0 
L 1503 0 
L 191 3500 
z
" transform="scale(0.015625)"/>
      </defs>
      <use xlink:href="#DejaVuSans-41"/>
      <use xlink:href="#DejaVuSans-63" transform="translate(66.658203 0)"/>
      <use xlink:href="#DejaVuSans-74" transform="translate(121.638672 0)"/>
      <use xlink:href="#DejaVuSans-69" transform="translate(160.847656 0)"/>
      <use xlink:href="#DejaVuSans-76" transform="translate(188.630859 0)"/>
      <use xlink:href="#DejaVuSans-65" transform="translate(247.810547 0)"/>
      <use xlink:href="#DejaVuSans-73" transform="translate(309.333984 0)"/>
     </g>
    </g>
    <g id="patch_46">
     <path d="M 146.643125 40.428665 
L 158.643125 40.428665 
L 158.643125 36.228665 
L 146.643125 36.228665 
z
" style="fill: #4477aa; opacity: 0.6"/>
    </g>
    <g id="text_14">
     <!-- Decoys -->
     <g transform="translate(163.443125 40.428665) scale(0.06 -0.06)">
      <defs>
       <path id="DejaVuSans-6f" d="M 1959 3097 
Q 1497 3097 1228 2736 
Q 959 2375 959 1747 
Q 959 1119 1226 758 
Q 1494 397 1959 397 
Q 2419 397 2687 759 
Q 2956 1122 2956 1747 
Q 2956 2369 2687 2733 
Q 2419 3097 1959 3097 
z
M 1959 3584 
Q 2709 3584 3137 3096 
Q 3566 2609 3566 1747 
Q 3566 888 3137 398 
Q 2709 -91 1959 -91 
Q 1206 -91 779 398 
Q 353 888 353 1747 
Q 353 2609 779 3096 
Q 1206 3584 1959 3584 
z
" transform="scale(0.015625)"/>
      </defs>
      <use xlink:href="#DejaVuSans-44"/>
      <use xlink:href="#DejaVuSans-65" transform="translate(77.001953 0)"/>
      <use xlink:href="#DejaVuSans-63" transform="translate(138.525391 0)"/>
      <use xlink:href="#DejaVuSans-6f" transform="translate(193.505859 0)"/>
      <use xlink:href="#DejaVuSans-79" transform="translate(254.6875 0)"/>
      <use xlink:href="#DejaVuSans-73" transform="translate(313.867188 0)"/>
     </g>
    </g>
   </g>
  </g>
  <g id="axes_2">
   <g id="patch_47">
    <path d="M 228.962187 136.531364 
L 380.042187 136.531364 
L 380.042187 21.662727 
L 228.962187 21.662727 
z
" style="fill: #ffffff"/>
   </g>
   <g id="patch_48">
    <path d="M 245.426984 136.531364 
L 251.81438 136.531364 
L 251.81438 122.435716 
L 245.426984 122.435716 
z
" clip-path="url(#pa46a5cd053)" style="fill: #ee6677; opacity: 0.6"/>
   </g>
   <g id="patch_49">
    <path d="M 251.81438 136.531364 
L 258.201777 136.531364 
L 258.201777 136.531364 
L 251.81438 136.531364 
z
" clip-path="url(#pa46a5cd053)" style="fill: #ee6677; opacity: 0.6"/>
   </g>
   <g id="patch_50">
    <path d="M 258.201777 136.531364 
L 264.589173 136.531364 
L 264.589173 136.531364 
L 258.201777 136.531364 
z
" clip-path="url(#pa46a5cd053)" style="fill: #ee6677; opacity: 0.6"/>
   </g>
   <g id="patch_51">
    <path d="M 264.589173 136.531364 
L 270.97657 136.531364 
L 270.97657 108.340069 
L 264.589173 108.340069 
z
" clip-path="url(#pa46a5cd053)" style="fill: #ee6677; opacity: 0.6"/>
   </g>
   <g id="patch_52">
    <path d="M 270.97657 136.531364 
L 277.363967 136.531364 
L 277.363967 129.48354 
L 270.97657 129.48354 
z
" clip-path="url(#pa46a5cd053)" style="fill: #ee6677; opacity: 0.6"/>
   </g>
   <g id="patch_53">
    <path d="M 277.363967 136.531364 
L 283.751363 136.531364 
L 283.751363 51.95748 
L 277.363967 51.95748 
z
" clip-path="url(#pa46a5cd053)" style="fill: #ee6677; opacity: 0.6"/>
   </g>
   <g id="patch_54">
    <path d="M 283.751363 136.531364 
L 290.13876 136.531364 
L 290.13876 73.100951 
L 283.751363 73.100951 
z
" clip-path="url(#pa46a5cd053)" style="fill: #ee6677; opacity: 0.6"/>
   </g>
   <g id="patch_55">
    <path d="M 290.13876 136.531364 
L 296.526156 136.531364 
L 296.526156 51.95748 
L 290.13876 51.95748 
z
" clip-path="url(#pa46a5cd053)" style="fill: #ee6677; opacity: 0.6"/>
   </g>
   <g id="patch_56">
    <path d="M 296.526156 136.531364 
L 302.913553 136.531364 
L 302.913553 44.909656 
L 296.526156 44.909656 
z
" clip-path="url(#pa46a5cd053)" style="fill: #ee6677; opacity: 0.6"/>
   </g>
   <g id="patch_57">
    <path d="M 302.913553 136.531364 
L 309.300949 136.531364 
L 309.300949 87.196598 
L 302.913553 87.196598 
z
" clip-path="url(#pa46a5cd053)" style="fill: #ee6677; opacity: 0.6"/>
   </g>
   <g id="patch_58">
    <path d="M 309.300949 136.531364 
L 315.688346 136.531364 
L 315.688346 73.100951 
L 309.300949 73.100951 
z
" clip-path="url(#pa46a5cd053)" style="fill: #ee6677; opacity: 0.6"/>
   </g>
   <g id="patch_59">
    <path d="M 315.688346 136.531364 
L 322.075742 136.531364 
L 322.075742 80.148774 
L 315.688346 80.148774 
z
" clip-path="url(#pa46a5cd053)" style="fill: #ee6677; opacity: 0.6"/>
   </g>
   <g id="patch_60">
    <path d="M 322.075742 136.531364 
L 328.463139 136.531364 
L 328.463139 87.196598 
L 322.075742 87.196598 
z
" clip-path="url(#pa46a5cd053)" style="fill: #ee6677; opacity: 0.6"/>
   </g>
   <g id="patch_61">
    <path d="M 328.463139 136.531364 
L 334.850535 136.531364 
L 334.850535 101.292245 
L 328.463139 101.292245 
z
" clip-path="url(#pa46a5cd053)" style="fill: #ee6677; opacity: 0.6"/>
   </g>
   <g id="patch_62">
    <path d="M 334.850535 136.531364 
L 341.237932 136.531364 
L 341.237932 115.387893 
L 334.850535 115.387893 
z
" clip-path="url(#pa46a5cd053)" style="fill: #ee6677; opacity: 0.6"/>
   </g>
   <g id="patch_63">
    <path d="M 341.237932 136.531364 
L 347.625329 136.531364 
L 347.625329 115.387893 
L 341.237932 115.387893 
z
" clip-path="url(#pa46a5cd053)" style="fill: #ee6677; opacity: 0.6"/>
   </g>
   <g id="patch_64">
    <path d="M 347.625329 136.531364 
L 354.012725 136.531364 
L 354.012725 136.531364 
L 347.625329 136.531364 
z
" clip-path="url(#pa46a5cd053)" style="fill: #ee6677; opacity: 0.6"/>
   </g>
   <g id="patch_65">
    <path d="M 354.012725 136.531364 
L 360.400122 136.531364 
L 360.400122 129.48354 
L 354.012725 129.48354 
z
" clip-path="url(#pa46a5cd053)" style="fill: #ee6677; opacity: 0.6"/>
   </g>
   <g id="patch_66">
    <path d="M 360.400122 136.531364 
L 366.787518 136.531364 
L 366.787518 122.435716 
L 360.400122 122.435716 
z
" clip-path="url(#pa46a5cd053)" style="fill: #ee6677; opacity: 0.6"/>
   </g>
   <g id="patch_67">
    <path d="M 366.787518 136.531364 
L 373.174915 136.531364 
L 373.174915 122.435716 
L 366.787518 122.435716 
z
" clip-path="url(#pa46a5cd053)" style="fill: #ee6677; opacity: 0.6"/>
   </g>
   <g id="patch_68">
    <path d="M 235.82946 136.531364 
L 241.261221 136.531364 
L 241.261221 134.873808 
L 235.82946 134.873808 
z
" clip-path="url(#pa46a5cd053)" style="fill: #4477aa; opacity: 0.6"/>
   </g>
   <g id="patch_69">
    <path d="M 241.261221 136.531364 
L 246.692983 136.531364 
L 246.692983 124.928471 
L 241.261221 124.928471 
z
" clip-path="url(#pa46a5cd053)" style="fill: #4477aa; opacity: 0.6"/>
   </g>
   <g id="patch_70">
    <path d="M 246.692983 136.531364 
L 252.124744 136.531364 
L 252.124744 133.216251 
L 246.692983 133.216251 
z
" clip-path="url(#pa46a5cd053)" style="fill: #4477aa; opacity: 0.6"/>
   </g>
   <g id="patch_71">
    <path d="M 252.124744 136.531364 
L 257.556505 136.531364 
L 257.556505 131.558695 
L 252.124744 131.558695 
z
" clip-path="url(#pa46a5cd053)" style="fill: #4477aa; opacity: 0.6"/>
   </g>
   <g id="patch_72">
    <path d="M 257.556505 136.531364 
L 262.988267 136.531364 
L 262.988267 129.901139 
L 257.556505 129.901139 
z
" clip-path="url(#pa46a5cd053)" style="fill: #4477aa; opacity: 0.6"/>
   </g>
   <g id="patch_73">
    <path d="M 262.988267 136.531364 
L 268.420028 136.531364 
L 268.420028 136.531364 
L 262.988267 136.531364 
z
" clip-path="url(#pa46a5cd053)" style="fill: #4477aa; opacity: 0.6"/>
   </g>
   <g id="patch_74">
    <path d="M 268.420028 136.531364 
L 273.851789 136.531364 
L 273.851789 136.531364 
L 268.420028 136.531364 
z
" clip-path="url(#pa46a5cd053)" style="fill: #4477aa; opacity: 0.6"/>
   </g>
   <g id="patch_75">
    <path d="M 273.851789 136.531364 
L 279.28355 136.531364 
L 279.28355 136.531364 
L 273.851789 136.531364 
z
" clip-path="url(#pa46a5cd053)" style="fill: #4477aa; opacity: 0.6"/>
   </g>
   <g id="patch_76">
    <path d="M 279.28355 136.531364 
L 284.715312 136.531364 
L 284.715312 108.35291 
L 279.28355 108.35291 
z
" clip-path="url(#pa46a5cd053)" style="fill: #4477aa; opacity: 0.6"/>
   </g>
   <g id="patch_77">
    <path d="M 284.715312 136.531364 
L 290.147073 136.531364 
L 290.147073 50.338447 
L 284.715312 50.338447 
z
" clip-path="url(#pa46a5cd053)" style="fill: #4477aa; opacity: 0.6"/>
   </g>
   <g id="patch_78">
    <path d="M 290.147073 136.531364 
L 295.578834 136.531364 
L 295.578834 63.598896 
L 290.147073 63.598896 
z
" clip-path="url(#pa46a5cd053)" style="fill: #4477aa; opacity: 0.6"/>
   </g>
   <g id="patch_79">
    <path d="M 295.578834 136.531364 
L 301.010595 136.531364 
L 301.010595 60.283784 
L 295.578834 60.283784 
z
" clip-path="url(#pa46a5cd053)" style="fill: #4477aa; opacity: 0.6"/>
   </g>
   <g id="patch_80">
    <path d="M 301.010595 136.531364 
L 306.442357 136.531364 
L 306.442357 40.393111 
L 301.010595 40.393111 
z
" clip-path="url(#pa46a5cd053)" style="fill: #4477aa; opacity: 0.6"/>
   </g>
   <g id="patch_81">
    <path d="M 306.442357 136.531364 
L 311.874118 136.531364 
L 311.874118 37.077999 
L 306.442357 37.077999 
z
" clip-path="url(#pa46a5cd053)" style="fill: #4477aa; opacity: 0.6"/>
   </g>
   <g id="patch_82">
    <path d="M 311.874118 136.531364 
L 317.305879 136.531364 
L 317.305879 27.132662 
L 311.874118 27.132662 
z
" clip-path="url(#pa46a5cd053)" style="fill: #4477aa; opacity: 0.6"/>
   </g>
   <g id="patch_83">
    <path d="M 317.305879 136.531364 
L 322.737641 136.531364 
L 322.737641 51.996004 
L 317.305879 51.996004 
z
" clip-path="url(#pa46a5cd053)" style="fill: #4477aa; opacity: 0.6"/>
   </g>
   <g id="patch_84">
    <path d="M 322.737641 136.531364 
L 328.169402 136.531364 
L 328.169402 58.626228 
L 322.737641 58.626228 
z
" clip-path="url(#pa46a5cd053)" style="fill: #4477aa; opacity: 0.6"/>
   </g>
   <g id="patch_85">
    <path d="M 328.169402 136.531364 
L 333.601163 136.531364 
L 333.601163 100.06513 
L 328.169402 100.06513 
z
" clip-path="url(#pa46a5cd053)" style="fill: #4477aa; opacity: 0.6"/>
   </g>
   <g id="patch_86">
    <path d="M 333.601163 136.531364 
L 339.032924 136.531364 
L 339.032924 113.325579 
L 333.601163 113.325579 
z
" clip-path="url(#pa46a5cd053)" style="fill: #4477aa; opacity: 0.6"/>
   </g>
   <g id="patch_87">
    <path d="M 339.032924 136.531364 
L 344.464686 136.531364 
L 344.464686 126.586027 
L 339.032924 126.586027 
z
" clip-path="url(#pa46a5cd053)" style="fill: #4477aa; opacity: 0.6"/>
   </g>
   <g id="matplotlib.axis_3">
    <g id="xtick_5">
     <g id="line2d_11">
      <g>
       <use xlink:href="#m4a5fe8b382" x="235.482676" y="136.531364" style="stroke: #000000; stroke-width: 0.5"/>
      </g>
     </g>
     <g id="text_15">
      <!-- 0 -->
      <g transform="translate(233.255801 148.35027) scale(0.07 -0.07)">
       <use xlink:href="#DejaVuSans-30"/>
      </g>
     </g>
    </g>
    <g id="xtick_6">
     <g id="line2d_12">
      <g>
       <use xlink:href="#m4a5fe8b382" x="267.152445" y="136.531364" style="stroke: #000000; stroke-width: 0.5"/>
      </g>
     </g>
     <g id="text_16">
      <!-- 2 -->
      <g transform="translate(264.92557 148.35027) scale(0.07 -0.07)">
       <use xlink:href="#DejaVuSans-32"/>
      </g>
     </g>
    </g>
    <g id="xtick_7">
     <g id="line2d_13">
      <g>
       <use xlink:href="#m4a5fe8b382" x="298.822214" y="136.531364" style="stroke: #000000; stroke-width: 0.5"/>
      </g>
     </g>
     <g id="text_17">
      <!-- 4 -->
      <g transform="translate(296.595339 148.35027) scale(0.07 -0.07)">
       <use xlink:href="#DejaVuSans-34"/>
      </g>
     </g>
    </g>
    <g id="xtick_8">
     <g id="line2d_14">
      <g>
       <use xlink:href="#m4a5fe8b382" x="330.491983" y="136.531364" style="stroke: #000000; stroke-width: 0.5"/>
      </g>
     </g>
     <g id="text_18">
      <!-- 6 -->
      <g transform="translate(328.265108 148.35027) scale(0.07 -0.07)">
       <use xlink:href="#DejaVuSans-36"/>
      </g>
     </g>
    </g>
    <g id="xtick_9">
     <g id="line2d_15">
      <g>
       <use xlink:href="#m4a5fe8b382" x="362.161753" y="136.531364" style="stroke: #000000; stroke-width: 0.5"/>
      </g>
     </g>
     <g id="text_19">
      <!-- 8 -->
      <g transform="translate(359.934878 148.35027) scale(0.07 -0.07)">
       <use xlink:href="#DejaVuSans-38"/>
      </g>
     </g>
    </g>
    <g id="text_20">
     <!-- LogP -->
     <g transform="translate(294.944687 159.884801) scale(0.08 -0.08)">
      <defs>
       <path id="DejaVuSans-4c" d="M 628 4666 
L 1259 4666 
L 1259 531 
L 3531 531 
L 3531 0 
L 628 0 
L 628 4666 
z
" transform="scale(0.015625)"/>
       <path id="DejaVuSans-67" d="M 2906 1791 
Q 2906 2416 2648 2759 
Q 2391 3103 1925 3103 
Q 1463 3103 1205 2759 
Q 947 2416 947 1791 
Q 947 1169 1205 825 
Q 1463 481 1925 481 
Q 2391 481 2648 825 
Q 2906 1169 2906 1791 
z
M 3481 434 
Q 3481 -459 3084 -895 
Q 2688 -1331 1869 -1331 
Q 1566 -1331 1297 -1286 
Q 1028 -1241 775 -1147 
L 775 -588 
Q 1028 -725 1275 -790 
Q 1522 -856 1778 -856 
Q 2344 -856 2625 -561 
Q 2906 -266 2906 331 
L 2906 616 
Q 2728 306 2450 153 
Q 2172 0 1784 0 
Q 1141 0 747 490 
Q 353 981 353 1791 
Q 353 2603 747 3093 
Q 1141 3584 1784 3584 
Q 2172 3584 2450 3431 
Q 2728 3278 2906 2969 
L 2906 3500 
L 3481 3500 
L 3481 434 
z
" transform="scale(0.015625)"/>
       <path id="DejaVuSans-50" d="M 1259 4147 
L 1259 2394 
L 2053 2394 
Q 2494 2394 2734 2622 
Q 2975 2850 2975 3272 
Q 2975 3691 2734 3919 
Q 2494 4147 2053 4147 
L 1259 4147 
z
M 628 4666 
L 2053 4666 
Q 2838 4666 3239 4311 
Q 3641 3956 3641 3272 
Q 3641 2581 3239 2228 
Q 2838 1875 2053 1875 
L 1259 1875 
L 1259 0 
L 628 0 
L 628 4666 
z
" transform="scale(0.015625)"/>
      </defs>
      <use xlink:href="#DejaVuSans-4c"/>
      <use xlink:href="#DejaVuSans-6f" transform="translate(53.962891 0)"/>
      <use xlink:href="#DejaVuSans-67" transform="translate(115.144531 0)"/>
      <use xlink:href="#DejaVuSans-50" transform="translate(178.621094 0)"/>
     </g>
    </g>
   </g>
   <g id="matplotlib.axis_4">
    <g id="ytick_7">
     <g id="line2d_16">
      <g>
       <use xlink:href="#m83eb2e55ab" x="228.962187" y="136.531364" style="stroke: #000000; stroke-width: 0.5"/>
      </g>
     </g>
     <g id="text_21">
      <!-- 0.0 -->
      <g transform="translate(211.33 139.190817) scale(0.07 -0.07)">
       <use xlink:href="#DejaVuSans-30"/>
       <use xlink:href="#DejaVuSans-2e" transform="translate(63.623047 0)"/>
       <use xlink:href="#DejaVuSans-30" transform="translate(95.410156 0)"/>
      </g>
     </g>
    </g>
    <g id="ytick_8">
     <g id="line2d_17">
      <g>
       <use xlink:href="#m83eb2e55ab" x="228.962187" y="108.102205" style="stroke: #000000; stroke-width: 0.5"/>
      </g>
     </g>
     <g id="text_22">
      <!-- 0.1 -->
      <g transform="translate(211.33 110.761658) scale(0.07 -0.07)">
       <use xlink:href="#DejaVuSans-30"/>
       <use xlink:href="#DejaVuSans-2e" transform="translate(63.623047 0)"/>
       <use xlink:href="#DejaVuSans-31" transform="translate(95.410156 0)"/>
      </g>
     </g>
    </g>
    <g id="ytick_9">
     <g id="line2d_18">
      <g>
       <use xlink:href="#m83eb2e55ab" x="228.962187" y="79.673046" style="stroke: #000000; stroke-width: 0.5"/>
      </g>
     </g>
     <g id="text_23">
      <!-- 0.2 -->
      <g transform="translate(211.33 82.332499) scale(0.07 -0.07)">
       <use xlink:href="#DejaVuSans-30"/>
       <use xlink:href="#DejaVuSans-2e" transform="translate(63.623047 0)"/>
       <use xlink:href="#DejaVuSans-32" transform="translate(95.410156 0)"/>
      </g>
     </g>
    </g>
    <g id="ytick_10">
     <g id="line2d_19">
      <g>
       <use xlink:href="#m83eb2e55ab" x="228.962187" y="51.243887" style="stroke: #000000; stroke-width: 0.5"/>
      </g>
     </g>
     <g id="text_24">
      <!-- 0.3 -->
      <g transform="translate(211.33 53.903341) scale(0.07 -0.07)">
       <use xlink:href="#DejaVuSans-30"/>
       <use xlink:href="#DejaVuSans-2e" transform="translate(63.623047 0)"/>
       <use xlink:href="#DejaVuSans-33" transform="translate(95.410156 0)"/>
      </g>
     </g>
    </g>
    <g id="ytick_11">
     <g id="line2d_20">
      <g>
       <use xlink:href="#m83eb2e55ab" x="228.962187" y="22.814729" style="stroke: #000000; stroke-width: 0.5"/>
      </g>
     </g>
     <g id="text_25">
      <!-- 0.4 -->
      <g transform="translate(211.33 25.474182) scale(0.07 -0.07)">
       <use xlink:href="#DejaVuSans-30"/>
       <use xlink:href="#DejaVuSans-2e" transform="translate(63.623047 0)"/>
       <use xlink:href="#DejaVuSans-34" transform="translate(95.410156 0)"/>
      </g>
     </g>
    </g>
    <g id="text_26">
     <!-- Density -->
     <g transform="translate(205.66625 94.30392) rotate(-90) scale(0.08 -0.08)">
      <use xlink:href="#DejaVuSans-44"/>
      <use xlink:href="#DejaVuSans-65" transform="translate(77.001953 0)"/>
      <use xlink:href="#DejaVuSans-6e" transform="translate(138.525391 0)"/>
      <use xlink:href="#DejaVuSans-73" transform="translate(201.904297 0)"/>
      <use xlink:href="#DejaVuSans-69" transform="translate(254.003906 0)"/>
      <use xlink:href="#DejaVuSans-74" transform="translate(281.787109 0)"/>
      <use xlink:href="#DejaVuSans-79" transform="translate(320.996094 0)"/>
     </g>
    </g>
   </g>
   <g id="patch_88">
    <path d="M 228.962187 136.531364 
L 228.962187 21.662727 
" style="fill: none; stroke: #000000; stroke-width: 0.5; stroke-linejoin: miter; stroke-linecap: square"/>
   </g>
   <g id="patch_89">
    <path d="M 228.962187 136.531364 
L 380.042187 136.531364 
" style="fill: none; stroke: #000000; stroke-width: 0.5; stroke-linejoin: miter; stroke-linecap: square"/>
   </g>
   <g id="legend_2">
    <g id="patch_90">
     <path d="M 335.883125 31.62179 
L 347.883125 31.62179 
L 347.883125 27.42179 
L 335.883125 27.42179 
z
" style="fill: #ee6677; opacity: 0.6"/>
    </g>
    <g id="text_27">
     <!-- Actives -->
     <g transform="translate(352.683125 31.62179) scale(0.06 -0.06)">
      <use xlink:href="#DejaVuSans-41"/>
      <use xlink:href="#DejaVuSans-63" transform="translate(66.658203 0)"/>
      <use xlink:href="#DejaVuSans-74" transform="translate(121.638672 0)"/>
      <use xlink:href="#DejaVuSans-69" transform="translate(160.847656 0)"/>
      <use xlink:href="#DejaVuSans-76" transform="translate(188.630859 0)"/>
      <use xlink:href="#DejaVuSans-65" transform="translate(247.810547 0)"/>
      <use xlink:href="#DejaVuSans-73" transform="translate(309.333984 0)"/>
     </g>
    </g>
    <g id="patch_91">
     <path d="M 335.883125 40.428665 
L 347.883125 40.428665 
L 347.883125 36.228665 
L 335.883125 36.228665 
z
" style="fill: #4477aa; opacity: 0.6"/>
    </g>
    <g id="text_28">
     <!-- Decoys -->
     <g transform="translate(352.683125 40.428665) scale(0.06 -0.06)">
      <use xlink:href="#DejaVuSans-44"/>
      <use xlink:href="#DejaVuSans-65" transform="translate(77.001953 0)"/>
      <use xlink:href="#DejaVuSans-63" transform="translate(138.525391 0)"/>
      <use xlink:href="#DejaVuSans-6f" transform="translate(193.505859 0)"/>
      <use xlink:href="#DejaVuSans-79" transform="translate(254.6875 0)"/>
      <use xlink:href="#DejaVuSans-73" transform="translate(313.867188 0)"/>
     </g>
    </g>
   </g>
  </g>
  <g id="axes_3">
   <g id="patch_92">
    <path d="M 39.722188 285.18 
L 190.802188 285.18 
L 190.802188 170.311364 
L 39.722188 170.311364 
z
" style="fill: #ffffff"/>
   </g>
   <g id="patch_93">
    <path d="M 46.58946 285.18 
L 53.456733 285.18 
L 53.456733 269.045432 
L 46.58946 269.045432 
z
" clip-path="url(#p7b60e43e75)" style="fill: #ee6677; opacity: 0.6"/>
   </g>
   <g id="patch_94">
    <path d="M 53.456733 285.18 
L 60.324006 285.18 
L 60.324006 285.18 
L 53.456733 285.18 
z
" clip-path="url(#p7b60e43e75)" style="fill: #ee6677; opacity: 0.6"/>
   </g>
   <g id="patch_95">
    <path d="M 60.324006 285.18 
L 67.191278 285.18 
L 67.191278 246.267217 
L 60.324006 246.267217 
z
" clip-path="url(#p7b60e43e75)" style="fill: #ee6677; opacity: 0.6"/>
   </g>
   <g id="patch_96">
    <path d="M 67.191278 285.18 
L 74.058551 285.18 
L 74.058551 285.18 
L 67.191278 285.18 
z
" clip-path="url(#p7b60e43e75)" style="fill: #ee6677; opacity: 0.6"/>
   </g>
   <g id="patch_97">
    <path d="M 74.058551 285.18 
L 80.925824 285.18 
L 80.925824 285.18 
L 74.058551 285.18 
z
" clip-path="url(#p7b60e43e75)" style="fill: #ee6677; opacity: 0.6"/>
   </g>
   <g id="patch_98">
    <path d="M 80.925824 285.18 
L 87.793097 285.18 
L 87.793097 256.707232 
L 80.925824 256.707232 
z
" clip-path="url(#p7b60e43e75)" style="fill: #ee6677; opacity: 0.6"/>
   </g>
   <g id="patch_99">
    <path d="M 87.793097 285.18 
L 94.660369 285.18 
L 94.660369 285.18 
L 87.793097 285.18 
z
" clip-path="url(#p7b60e43e75)" style="fill: #ee6677; opacity: 0.6"/>
   </g>
   <g id="patch_100">
    <path d="M 94.660369 285.18 
L 101.527642 285.18 
L 101.527642 285.18 
L 94.660369 285.18 
z
" clip-path="url(#p7b60e43e75)" style="fill: #ee6677; opacity: 0.6"/>
   </g>
   <g id="patch_101">
    <path d="M 101.527642 285.18 
L 108.394915 285.18 
L 108.394915 277.587262 
L 101.527642 277.587262 
z
" clip-path="url(#p7b60e43e75)" style="fill: #ee6677; opacity: 0.6"/>
   </g>
   <g id="patch_102">
    <path d="M 108.394915 285.18 
L 115.262188 285.18 
L 115.262188 285.18 
L 108.394915 285.18 
z
" clip-path="url(#p7b60e43e75)" style="fill: #ee6677; opacity: 0.6"/>
   </g>
   <g id="patch_103">
    <path d="M 115.262188 285.18 
L 122.12946 285.18 
L 122.12946 285.18 
L 115.262188 285.18 
z
" clip-path="url(#p7b60e43e75)" style="fill: #ee6677; opacity: 0.6"/>
   </g>
   <g id="patch_104">
    <path d="M 122.12946 285.18 
L 128.996733 285.18 
L 128.996733 283.281815 
L 122.12946 283.281815 
z
" clip-path="url(#p7b60e43e75)" style="fill: #ee6677; opacity: 0.6"/>
   </g>
   <g id="patch_105">
    <path d="M 128.996733 285.18 
L 135.864006 285.18 
L 135.864006 285.18 
L 128.996733 285.18 
z
" clip-path="url(#p7b60e43e75)" style="fill: #ee6677; opacity: 0.6"/>
   </g>
   <g id="patch_106">
    <path d="M 135.864006 285.18 
L 142.731278 285.18 
L 142.731278 285.18 
L 135.864006 285.18 
z
" clip-path="url(#p7b60e43e75)" style="fill: #ee6677; opacity: 0.6"/>
   </g>
   <g id="patch_107">
    <path d="M 142.731278 285.18 
L 149.598551 285.18 
L 149.598551 285.18 
L 142.731278 285.18 
z
" clip-path="url(#p7b60e43e75)" style="fill: #ee6677; opacity: 0.6"/>
   </g>
   <g id="patch_108">
    <path d="M 149.598551 285.18 
L 156.465824 285.18 
L 156.465824 285.18 
L 149.598551 285.18 
z
" clip-path="url(#p7b60e43e75)" style="fill: #ee6677; opacity: 0.6"/>
   </g>
   <g id="patch_109">
    <path d="M 156.465824 285.18 
L 163.333097 285.18 
L 163.333097 285.18 
L 156.465824 285.18 
z
" clip-path="url(#p7b60e43e75)" style="fill: #ee6677; opacity: 0.6"/>
   </g>
   <g id="patch_110">
    <path d="M 163.333097 285.18 
L 170.200369 285.18 
L 170.200369 284.230908 
L 163.333097 284.230908 
z
" clip-path="url(#p7b60e43e75)" style="fill: #ee6677; opacity: 0.6"/>
   </g>
   <g id="patch_111">
    <path d="M 170.200369 285.18 
L 177.067642 285.18 
L 177.067642 285.18 
L 170.200369 285.18 
z
" clip-path="url(#p7b60e43e75)" style="fill: #ee6677; opacity: 0.6"/>
   </g>
   <g id="patch_112">
    <path d="M 177.067642 285.18 
L 183.934915 285.18 
L 183.934915 284.230908 
L 177.067642 284.230908 
z
" clip-path="url(#p7b60e43e75)" style="fill: #ee6677; opacity: 0.6"/>
   </g>
   <g id="patch_113">
    <path d="M 46.58946 285.18 
L 49.532577 285.18 
L 49.532577 228.487556 
L 46.58946 228.487556 
z
" clip-path="url(#p7b60e43e75)" style="fill: #4477aa; opacity: 0.6"/>
   </g>
   <g id="patch_114">
    <path d="M 49.532577 285.18 
L 52.475694 285.18 
L 52.475694 285.18 
L 49.532577 285.18 
z
" clip-path="url(#p7b60e43e75)" style="fill: #4477aa; opacity: 0.6"/>
   </g>
   <g id="patch_115">
    <path d="M 52.475694 285.18 
L 55.418811 285.18 
L 55.418811 285.18 
L 52.475694 285.18 
z
" clip-path="url(#p7b60e43e75)" style="fill: #4477aa; opacity: 0.6"/>
   </g>
   <g id="patch_116">
    <path d="M 55.418811 285.18 
L 58.361928 285.18 
L 58.361928 285.18 
L 55.418811 285.18 
z
" clip-path="url(#p7b60e43e75)" style="fill: #4477aa; opacity: 0.6"/>
   </g>
   <g id="patch_117">
    <path d="M 58.361928 285.18 
L 61.305045 285.18 
L 61.305045 285.18 
L 58.361928 285.18 
z
" clip-path="url(#p7b60e43e75)" style="fill: #4477aa; opacity: 0.6"/>
   </g>
   <g id="patch_118">
    <path d="M 61.305045 285.18 
L 64.248162 285.18 
L 64.248162 285.18 
L 61.305045 285.18 
z
" clip-path="url(#p7b60e43e75)" style="fill: #4477aa; opacity: 0.6"/>
   </g>
   <g id="patch_119">
    <path d="M 64.248162 285.18 
L 67.191278 285.18 
L 67.191278 175.781299 
L 64.248162 175.781299 
z
" clip-path="url(#p7b60e43e75)" style="fill: #4477aa; opacity: 0.6"/>
   </g>
   <g id="patch_120">
    <path d="M 67.191278 285.18 
L 70.134395 285.18 
L 70.134395 285.18 
L 67.191278 285.18 
z
" clip-path="url(#p7b60e43e75)" style="fill: #4477aa; opacity: 0.6"/>
   </g>
   <g id="patch_121">
    <path d="M 70.134395 285.18 
L 73.077512 285.18 
L 73.077512 285.18 
L 70.134395 285.18 
z
" clip-path="url(#p7b60e43e75)" style="fill: #4477aa; opacity: 0.6"/>
   </g>
   <g id="patch_122">
    <path d="M 73.077512 285.18 
L 76.020629 285.18 
L 76.020629 285.18 
L 73.077512 285.18 
z
" clip-path="url(#p7b60e43e75)" style="fill: #4477aa; opacity: 0.6"/>
   </g>
   <g id="patch_123">
    <path d="M 76.020629 285.18 
L 78.963746 285.18 
L 78.963746 285.18 
L 76.020629 285.18 
z
" clip-path="url(#p7b60e43e75)" style="fill: #4477aa; opacity: 0.6"/>
   </g>
   <g id="patch_124">
    <path d="M 78.963746 285.18 
L 81.906863 285.18 
L 81.906863 285.18 
L 78.963746 285.18 
z
" clip-path="url(#p7b60e43e75)" style="fill: #4477aa; opacity: 0.6"/>
   </g>
   <g id="patch_125">
    <path d="M 81.906863 285.18 
L 84.84998 285.18 
L 84.84998 285.18 
L 81.906863 285.18 
z
" clip-path="url(#p7b60e43e75)" style="fill: #4477aa; opacity: 0.6"/>
   </g>
   <g id="patch_126">
    <path d="M 84.84998 285.18 
L 87.793097 285.18 
L 87.793097 237.78866 
L 84.84998 237.78866 
z
" clip-path="url(#p7b60e43e75)" style="fill: #4477aa; opacity: 0.6"/>
   </g>
   <g id="patch_127">
    <path d="M 87.793097 285.18 
L 90.736213 285.18 
L 90.736213 285.18 
L 87.793097 285.18 
z
" clip-path="url(#p7b60e43e75)" style="fill: #4477aa; opacity: 0.6"/>
   </g>
   <g id="patch_128">
    <path d="M 90.736213 285.18 
L 93.67933 285.18 
L 93.67933 285.18 
L 90.736213 285.18 
z
" clip-path="url(#p7b60e43e75)" style="fill: #4477aa; opacity: 0.6"/>
   </g>
   <g id="patch_129">
    <path d="M 93.67933 285.18 
L 96.622447 285.18 
L 96.622447 285.18 
L 93.67933 285.18 
z
" clip-path="url(#p7b60e43e75)" style="fill: #4477aa; opacity: 0.6"/>
   </g>
   <g id="patch_130">
    <path d="M 96.622447 285.18 
L 99.565564 285.18 
L 99.565564 285.18 
L 96.622447 285.18 
z
" clip-path="url(#p7b60e43e75)" style="fill: #4477aa; opacity: 0.6"/>
   </g>
   <g id="patch_131">
    <path d="M 99.565564 285.18 
L 102.508681 285.18 
L 102.508681 285.18 
L 99.565564 285.18 
z
" clip-path="url(#p7b60e43e75)" style="fill: #4477aa; opacity: 0.6"/>
   </g>
   <g id="patch_132">
    <path d="M 102.508681 285.18 
L 105.451798 285.18 
L 105.451798 277.207625 
L 102.508681 277.207625 
z
" clip-path="url(#p7b60e43e75)" style="fill: #4477aa; opacity: 0.6"/>
   </g>
   <g id="matplotlib.axis_5">
    <g id="xtick_10">
     <g id="line2d_21">
      <g>
       <use xlink:href="#m4a5fe8b382" x="46.58946" y="285.18" style="stroke: #000000; stroke-width: 0.5"/>
      </g>
     </g>
     <g id="text_29">
      <!-- 0 -->
      <g transform="translate(44.362585 296.998906) scale(0.07 -0.07)">
       <use xlink:href="#DejaVuSans-30"/>
      </g>
     </g>
    </g>
    <g id="xtick_11">
     <g id="line2d_22">
      <g>
       <use xlink:href="#m4a5fe8b382" x="85.831019" y="285.18" style="stroke: #000000; stroke-width: 0.5"/>
      </g>
     </g>
     <g id="text_30">
      <!-- 2 -->
      <g transform="translate(83.604144 296.998906) scale(0.07 -0.07)">
       <use xlink:href="#DejaVuSans-32"/>
      </g>
     </g>
    </g>
    <g id="xtick_12">
     <g id="line2d_23">
      <g>
       <use xlink:href="#m4a5fe8b382" x="125.072577" y="285.18" style="stroke: #000000; stroke-width: 0.5"/>
      </g>
     </g>
     <g id="text_31">
      <!-- 4 -->
      <g transform="translate(122.845702 296.998906) scale(0.07 -0.07)">
       <use xlink:href="#DejaVuSans-34"/>
      </g>
     </g>
    </g>
    <g id="xtick_13">
     <g id="line2d_24">
      <g>
       <use xlink:href="#m4a5fe8b382" x="164.314136" y="285.18" style="stroke: #000000; stroke-width: 0.5"/>
      </g>
     </g>
     <g id="text_32">
      <!-- 6 -->
      <g transform="translate(162.087261 296.998906) scale(0.07 -0.07)">
       <use xlink:href="#DejaVuSans-36"/>
      </g>
     </g>
    </g>
    <g id="text_33">
     <!-- HBD -->
     <g transform="translate(106.429688 308.533437) scale(0.08 -0.08)">
      <defs>
       <path id="DejaVuSans-48" d="M 628 4666 
L 1259 4666 
L 1259 2753 
L 3553 2753 
L 3553 4666 
L 4184 4666 
L 4184 0 
L 3553 0 
L 3553 2222 
L 1259 2222 
L 1259 0 
L 628 0 
L 628 4666 
z
" transform="scale(0.015625)"/>
       <path id="DejaVuSans-42" d="M 1259 2228 
L 1259 519 
L 2272 519 
Q 2781 519 3026 730 
Q 3272 941 3272 1375 
Q 3272 1813 3026 2020 
Q 2781 2228 2272 2228 
L 1259 2228 
z
M 1259 4147 
L 1259 2741 
L 2194 2741 
Q 2656 2741 2882 2914 
Q 3109 3088 3109 3444 
Q 3109 3797 2882 3972 
Q 2656 4147 2194 4147 
L 1259 4147 
z
M 628 4666 
L 2241 4666 
Q 2963 4666 3353 4366 
Q 3744 4066 3744 3513 
Q 3744 3084 3544 2831 
Q 3344 2578 2956 2516 
Q 3422 2416 3680 2098 
Q 3938 1781 3938 1306 
Q 3938 681 3513 340 
Q 3088 0 2303 0 
L 628 0 
L 628 4666 
z
" transform="scale(0.015625)"/>
      </defs>
      <use xlink:href="#DejaVuSans-48"/>
      <use xlink:href="#DejaVuSans-42" transform="translate(75.195312 0)"/>
      <use xlink:href="#DejaVuSans-44" transform="translate(143.798828 0)"/>
     </g>
    </g>
   </g>
   <g id="matplotlib.axis_6">
    <g id="ytick_12">
     <g id="line2d_25">
      <g>
       <use xlink:href="#m83eb2e55ab" x="39.722188" y="285.18" style="stroke: #000000; stroke-width: 0.5"/>
      </g>
     </g>
     <g id="text_34">
      <!-- 0.0 -->
      <g transform="translate(22.09 287.839453) scale(0.07 -0.07)">
       <use xlink:href="#DejaVuSans-30"/>
       <use xlink:href="#DejaVuSans-2e" transform="translate(63.623047 0)"/>
       <use xlink:href="#DejaVuSans-30" transform="translate(95.410156 0)"/>
      </g>
     </g>
    </g>
    <g id="ytick_13">
     <g id="line2d_26">
      <g>
       <use xlink:href="#m83eb2e55ab" x="39.722188" y="268.570885" style="stroke: #000000; stroke-width: 0.5"/>
      </g>
     </g>
     <g id="text_35">
      <!-- 0.5 -->
      <g transform="translate(22.09 271.230339) scale(0.07 -0.07)">
       <use xlink:href="#DejaVuSans-30"/>
       <use xlink:href="#DejaVuSans-2e" transform="translate(63.623047 0)"/>
       <use xlink:href="#DejaVuSans-35" transform="translate(95.410156 0)"/>
      </g>
     </g>
    </g>
    <g id="ytick_14">
     <g id="line2d_27">
      <g>
       <use xlink:href="#m83eb2e55ab" x="39.722188" y="251.961771" style="stroke: #000000; stroke-width: 0.5"/>
      </g>
     </g>
     <g id="text_36">
      <!-- 1.0 -->
      <g transform="translate(22.09 254.621224) scale(0.07 -0.07)">
       <use xlink:href="#DejaVuSans-31"/>
       <use xlink:href="#DejaVuSans-2e" transform="translate(63.623047 0)"/>
       <use xlink:href="#DejaVuSans-30" transform="translate(95.410156 0)"/>
      </g>
     </g>
    </g>
    <g id="ytick_15">
     <g id="line2d_28">
      <g>
       <use xlink:href="#m83eb2e55ab" x="39.722188" y="235.352656" style="stroke: #000000; stroke-width: 0.5"/>
      </g>
     </g>
     <g id="text_37">
      <!-- 1.5 -->
      <g transform="translate(22.09 238.012109) scale(0.07 -0.07)">
       <use xlink:href="#DejaVuSans-31"/>
       <use xlink:href="#DejaVuSans-2e" transform="translate(63.623047 0)"/>
       <use xlink:href="#DejaVuSans-35" transform="translate(95.410156 0)"/>
      </g>
     </g>
    </g>
    <g id="ytick_16">
     <g id="line2d_29">
      <g>
       <use xlink:href="#m83eb2e55ab" x="39.722188" y="218.743542" style="stroke: #000000; stroke-width: 0.5"/>
      </g>
     </g>
     <g id="text_38">
      <!-- 2.0 -->
      <g transform="translate(22.09 221.402995) scale(0.07 -0.07)">
       <use xlink:href="#DejaVuSans-32"/>
       <use xlink:href="#DejaVuSans-2e" transform="translate(63.623047 0)"/>
       <use xlink:href="#DejaVuSans-30" transform="translate(95.410156 0)"/>
      </g>
     </g>
    </g>
    <g id="ytick_17">
     <g id="line2d_30">
      <g>
       <use xlink:href="#m83eb2e55ab" x="39.722188" y="202.134427" style="stroke: #000000; stroke-width: 0.5"/>
      </g>
     </g>
     <g id="text_39">
      <!-- 2.5 -->
      <g transform="translate(22.09 204.79388) scale(0.07 -0.07)">
       <use xlink:href="#DejaVuSans-32"/>
       <use xlink:href="#DejaVuSans-2e" transform="translate(63.623047 0)"/>
       <use xlink:href="#DejaVuSans-35" transform="translate(95.410156 0)"/>
      </g>
     </g>
    </g>
    <g id="ytick_18">
     <g id="line2d_31">
      <g>
       <use xlink:href="#m83eb2e55ab" x="39.722188" y="185.525313" style="stroke: #000000; stroke-width: 0.5"/>
      </g>
     </g>
     <g id="text_40">
      <!-- 3.0 -->
      <g transform="translate(22.09 188.184766) scale(0.07 -0.07)">
       <use xlink:href="#DejaVuSans-33"/>
       <use xlink:href="#DejaVuSans-2e" transform="translate(63.623047 0)"/>
       <use xlink:href="#DejaVuSans-30" transform="translate(95.410156 0)"/>
      </g>
     </g>
    </g>
    <g id="text_41">
     <!-- Density -->
     <g transform="translate(16.42625 242.952557) rotate(-90) scale(0.08 -0.08)">
      <use xlink:href="#DejaVuSans-44"/>
      <use xlink:href="#DejaVuSans-65" transform="translate(77.001953 0)"/>
      <use xlink:href="#DejaVuSans-6e" transform="translate(138.525391 0)"/>
      <use xlink:href="#DejaVuSans-73" transform="translate(201.904297 0)"/>
      <use xlink:href="#DejaVuSans-69" transform="translate(254.003906 0)"/>
      <use xlink:href="#DejaVuSans-74" transform="translate(281.787109 0)"/>
      <use xlink:href="#DejaVuSans-79" transform="translate(320.996094 0)"/>
     </g>
    </g>
   </g>
   <g id="patch_133">
    <path d="M 39.722188 285.18 
L 39.722188 170.311364 
" style="fill: none; stroke: #000000; stroke-width: 0.5; stroke-linejoin: miter; stroke-linecap: square"/>
   </g>
   <g id="patch_134">
    <path d="M 39.722188 285.18 
L 190.802187 285.18 
" style="fill: none; stroke: #000000; stroke-width: 0.5; stroke-linejoin: miter; stroke-linecap: square"/>
   </g>
   <g id="legend_3">
    <g id="patch_135">
     <path d="M 146.643125 180.270426 
L 158.643125 180.270426 
L 158.643125 176.070426 
L 146.643125 176.070426 
z
" style="fill: #ee6677; opacity: 0.6"/>
    </g>
    <g id="text_42">
     <!-- Actives -->
     <g transform="translate(163.443125 180.270426) scale(0.06 -0.06)">
      <use xlink:href="#DejaVuSans-41"/>
      <use xlink:href="#DejaVuSans-63" transform="translate(66.658203 0)"/>
      <use xlink:href="#DejaVuSans-74" transform="translate(121.638672 0)"/>
      <use xlink:href="#DejaVuSans-69" transform="translate(160.847656 0)"/>
      <use xlink:href="#DejaVuSans-76" transform="translate(188.630859 0)"/>
      <use xlink:href="#DejaVuSans-65" transform="translate(247.810547 0)"/>
      <use xlink:href="#DejaVuSans-73" transform="translate(309.333984 0)"/>
     </g>
    </g>
    <g id="patch_136">
     <path d="M 146.643125 189.077301 
L 158.643125 189.077301 
L 158.643125 184.877301 
L 146.643125 184.877301 
z
" style="fill: #4477aa; opacity: 0.6"/>
    </g>
    <g id="text_43">
     <!-- Decoys -->
     <g transform="translate(163.443125 189.077301) scale(0.06 -0.06)">
      <use xlink:href="#DejaVuSans-44"/>
      <use xlink:href="#DejaVuSans-65" transform="translate(77.001953 0)"/>
      <use xlink:href="#DejaVuSans-63" transform="translate(138.525391 0)"/>
      <use xlink:href="#DejaVuSans-6f" transform="translate(193.505859 0)"/>
      <use xlink:href="#DejaVuSans-79" transform="translate(254.6875 0)"/>
      <use xlink:href="#DejaVuSans-73" transform="translate(313.867188 0)"/>
     </g>
    </g>
   </g>
  </g>
  <g id="axes_4">
   <g id="patch_137">
    <path d="M 228.962187 285.18 
L 380.042187 285.18 
L 380.042187 170.311364 
L 228.962187 170.311364 
z
" style="fill: #ffffff"/>
   </g>
   <g id="patch_138">
    <path d="M 235.82946 285.18 
L 242.696733 285.18 
L 242.696733 283.202915 
L 235.82946 283.202915 
z
" clip-path="url(#pb0ed668555)" style="fill: #ee6677; opacity: 0.6"/>
   </g>
   <g id="patch_139">
    <path d="M 242.696733 285.18 
L 249.564006 285.18 
L 249.564006 285.18 
L 242.696733 285.18 
z
" clip-path="url(#pb0ed668555)" style="fill: #ee6677; opacity: 0.6"/>
   </g>
   <g id="patch_140">
    <path d="M 249.564006 285.18 
L 256.431278 285.18 
L 256.431278 281.22583 
L 249.564006 281.22583 
z
" clip-path="url(#pb0ed668555)" style="fill: #ee6677; opacity: 0.6"/>
   </g>
   <g id="patch_141">
    <path d="M 256.431278 285.18 
L 263.298551 285.18 
L 263.298551 285.18 
L 256.431278 285.18 
z
" clip-path="url(#pb0ed668555)" style="fill: #ee6677; opacity: 0.6"/>
   </g>
   <g id="patch_142">
    <path d="M 263.298551 285.18 
L 270.165824 285.18 
L 270.165824 259.477895 
L 263.298551 259.477895 
z
" clip-path="url(#pb0ed668555)" style="fill: #ee6677; opacity: 0.6"/>
   </g>
   <g id="patch_143">
    <path d="M 270.165824 285.18 
L 277.033097 285.18 
L 277.033097 285.18 
L 270.165824 285.18 
z
" clip-path="url(#pb0ed668555)" style="fill: #ee6677; opacity: 0.6"/>
   </g>
   <g id="patch_144">
    <path d="M 277.033097 285.18 
L 283.900369 285.18 
L 283.900369 249.592471 
L 277.033097 249.592471 
z
" clip-path="url(#pb0ed668555)" style="fill: #ee6677; opacity: 0.6"/>
   </g>
   <g id="patch_145">
    <path d="M 283.900369 285.18 
L 290.767642 285.18 
L 290.767642 285.18 
L 283.900369 285.18 
z
" clip-path="url(#pb0ed668555)" style="fill: #ee6677; opacity: 0.6"/>
   </g>
   <g id="patch_146">
    <path d="M 290.767642 285.18 
L 297.634915 285.18 
L 297.634915 245.638301 
L 290.767642 245.638301 
z
" clip-path="url(#pb0ed668555)" style="fill: #ee6677; opacity: 0.6"/>
   </g>
   <g id="patch_147">
    <path d="M 297.634915 285.18 
L 304.502187 285.18 
L 304.502187 285.18 
L 297.634915 285.18 
z
" clip-path="url(#pb0ed668555)" style="fill: #ee6677; opacity: 0.6"/>
   </g>
   <g id="patch_148">
    <path d="M 304.502187 285.18 
L 311.36946 285.18 
L 311.36946 259.477895 
L 304.502187 259.477895 
z
" clip-path="url(#pb0ed668555)" style="fill: #ee6677; opacity: 0.6"/>
   </g>
   <g id="patch_149">
    <path d="M 311.36946 285.18 
L 318.236733 285.18 
L 318.236733 285.18 
L 311.36946 285.18 
z
" clip-path="url(#pb0ed668555)" style="fill: #ee6677; opacity: 0.6"/>
   </g>
   <g id="patch_150">
    <path d="M 318.236733 285.18 
L 325.104006 285.18 
L 325.104006 257.500811 
L 318.236733 257.500811 
z
" clip-path="url(#pb0ed668555)" style="fill: #ee6677; opacity: 0.6"/>
   </g>
   <g id="patch_151">
    <path d="M 325.104006 285.18 
L 331.971278 285.18 
L 331.971278 285.18 
L 325.104006 285.18 
z
" clip-path="url(#pb0ed668555)" style="fill: #ee6677; opacity: 0.6"/>
   </g>
   <g id="patch_152">
    <path d="M 331.971278 285.18 
L 338.838551 285.18 
L 338.838551 265.40915 
L 331.971278 265.40915 
z
" clip-path="url(#pb0ed668555)" style="fill: #ee6677; opacity: 0.6"/>
   </g>
   <g id="patch_153">
    <path d="M 338.838551 285.18 
L 345.705824 285.18 
L 345.705824 285.18 
L 338.838551 285.18 
z
" clip-path="url(#pb0ed668555)" style="fill: #ee6677; opacity: 0.6"/>
   </g>
   <g id="patch_154">
    <path d="M 345.705824 285.18 
L 352.573097 285.18 
L 352.573097 273.31749 
L 345.705824 273.31749 
z
" clip-path="url(#pb0ed668555)" style="fill: #ee6677; opacity: 0.6"/>
   </g>
   <g id="patch_155">
    <path d="M 352.573097 285.18 
L 359.440369 285.18 
L 359.440369 285.18 
L 352.573097 285.18 
z
" clip-path="url(#pb0ed668555)" style="fill: #ee6677; opacity: 0.6"/>
   </g>
   <g id="patch_156">
    <path d="M 359.440369 285.18 
L 366.307642 285.18 
L 366.307642 281.22583 
L 359.440369 281.22583 
z
" clip-path="url(#pb0ed668555)" style="fill: #ee6677; opacity: 0.6"/>
   </g>
   <g id="patch_157">
    <path d="M 366.307642 285.18 
L 373.174915 285.18 
L 373.174915 283.202915 
L 366.307642 283.202915 
z
" clip-path="url(#pb0ed668555)" style="fill: #ee6677; opacity: 0.6"/>
   </g>
   <g id="patch_158">
    <path d="M 249.564006 285.18 
L 253.684369 285.18 
L 253.684369 280.566802 
L 249.564006 280.566802 
z
" clip-path="url(#pb0ed668555)" style="fill: #4477aa; opacity: 0.6"/>
   </g>
   <g id="patch_159">
    <path d="M 253.684369 285.18 
L 257.804733 285.18 
L 257.804733 285.18 
L 253.684369 285.18 
z
" clip-path="url(#pb0ed668555)" style="fill: #4477aa; opacity: 0.6"/>
   </g>
   <g id="patch_160">
    <path d="M 257.804733 285.18 
L 261.925097 285.18 
L 261.925097 285.18 
L 257.804733 285.18 
z
" clip-path="url(#pb0ed668555)" style="fill: #4477aa; opacity: 0.6"/>
   </g>
   <g id="patch_161">
    <path d="M 261.925097 285.18 
L 266.04546 285.18 
L 266.04546 235.752876 
L 261.925097 235.752876 
z
" clip-path="url(#pb0ed668555)" style="fill: #4477aa; opacity: 0.6"/>
   </g>
   <g id="patch_162">
    <path d="M 266.04546 285.18 
L 270.165824 285.18 
L 270.165824 285.18 
L 266.04546 285.18 
z
" clip-path="url(#pb0ed668555)" style="fill: #4477aa; opacity: 0.6"/>
   </g>
   <g id="patch_163">
    <path d="M 270.165824 285.18 
L 274.286187 285.18 
L 274.286187 285.18 
L 270.165824 285.18 
z
" clip-path="url(#pb0ed668555)" style="fill: #4477aa; opacity: 0.6"/>
   </g>
   <g id="patch_164">
    <path d="M 274.286187 285.18 
L 278.406551 285.18 
L 278.406551 175.781299 
L 274.286187 175.781299 
z
" clip-path="url(#pb0ed668555)" style="fill: #4477aa; opacity: 0.6"/>
   </g>
   <g id="patch_165">
    <path d="M 278.406551 285.18 
L 282.526915 285.18 
L 282.526915 285.18 
L 278.406551 285.18 
z
" clip-path="url(#pb0ed668555)" style="fill: #4477aa; opacity: 0.6"/>
   </g>
   <g id="patch_166">
    <path d="M 282.526915 285.18 
L 286.647278 285.18 
L 286.647278 285.18 
L 282.526915 285.18 
z
" clip-path="url(#pb0ed668555)" style="fill: #4477aa; opacity: 0.6"/>
   </g>
   <g id="patch_167">
    <path d="M 286.647278 285.18 
L 290.767642 285.18 
L 290.767642 285.18 
L 286.647278 285.18 
z
" clip-path="url(#pb0ed668555)" style="fill: #4477aa; opacity: 0.6"/>
   </g>
   <g id="patch_168">
    <path d="M 290.767642 285.18 
L 294.888006 285.18 
L 294.888006 229.162593 
L 290.767642 229.162593 
z
" clip-path="url(#pb0ed668555)" style="fill: #4477aa; opacity: 0.6"/>
   </g>
   <g id="patch_169">
    <path d="M 294.888006 285.18 
L 299.008369 285.18 
L 299.008369 285.18 
L 294.888006 285.18 
z
" clip-path="url(#pb0ed668555)" style="fill: #4477aa; opacity: 0.6"/>
   </g>
   <g id="patch_170">
    <path d="M 299.008369 285.18 
L 303.128733 285.18 
L 303.128733 285.18 
L 299.008369 285.18 
z
" clip-path="url(#pb0ed668555)" style="fill: #4477aa; opacity: 0.6"/>
   </g>
   <g id="patch_171">
    <path d="M 303.128733 285.18 
L 307.249097 285.18 
L 307.249097 225.867451 
L 303.128733 225.867451 
z
" clip-path="url(#pb0ed668555)" style="fill: #4477aa; opacity: 0.6"/>
   </g>
   <g id="patch_172">
    <path d="M 307.249097 285.18 
L 311.36946 285.18 
L 311.36946 285.18 
L 307.249097 285.18 
z
" clip-path="url(#pb0ed668555)" style="fill: #4477aa; opacity: 0.6"/>
   </g>
   <g id="patch_173">
    <path d="M 311.36946 285.18 
L 315.489824 285.18 
L 315.489824 285.18 
L 311.36946 285.18 
z
" clip-path="url(#pb0ed668555)" style="fill: #4477aa; opacity: 0.6"/>
   </g>
   <g id="patch_174">
    <path d="M 315.489824 285.18 
L 319.610187 285.18 
L 319.610187 250.910527 
L 315.489824 250.910527 
z
" clip-path="url(#pb0ed668555)" style="fill: #4477aa; opacity: 0.6"/>
   </g>
   <g id="patch_175">
    <path d="M 319.610187 285.18 
L 323.730551 285.18 
L 323.730551 285.18 
L 319.610187 285.18 
z
" clip-path="url(#pb0ed668555)" style="fill: #4477aa; opacity: 0.6"/>
   </g>
   <g id="patch_176">
    <path d="M 323.730551 285.18 
L 327.850915 285.18 
L 327.850915 285.18 
L 323.730551 285.18 
z
" clip-path="url(#pb0ed668555)" style="fill: #4477aa; opacity: 0.6"/>
   </g>
   <g id="patch_177">
    <path d="M 327.850915 285.18 
L 331.971278 285.18 
L 331.971278 268.704292 
L 327.850915 268.704292 
z
" clip-path="url(#pb0ed668555)" style="fill: #4477aa; opacity: 0.6"/>
   </g>
   <g id="matplotlib.axis_7">
    <g id="xtick_14">
     <g id="line2d_32">
      <g>
       <use xlink:href="#m4a5fe8b382" x="235.82946" y="285.18" style="stroke: #000000; stroke-width: 0.5"/>
      </g>
     </g>
     <g id="text_44">
      <!-- 0 -->
      <g transform="translate(233.602585 296.998906) scale(0.07 -0.07)">
       <use xlink:href="#DejaVuSans-30"/>
      </g>
     </g>
    </g>
    <g id="xtick_15">
     <g id="line2d_33">
      <g>
       <use xlink:href="#m4a5fe8b382" x="263.298551" y="285.18" style="stroke: #000000; stroke-width: 0.5"/>
      </g>
     </g>
     <g id="text_45">
      <!-- 2 -->
      <g transform="translate(261.071676 296.998906) scale(0.07 -0.07)">
       <use xlink:href="#DejaVuSans-32"/>
      </g>
     </g>
    </g>
    <g id="xtick_16">
     <g id="line2d_34">
      <g>
       <use xlink:href="#m4a5fe8b382" x="290.767642" y="285.18" style="stroke: #000000; stroke-width: 0.5"/>
      </g>
     </g>
     <g id="text_46">
      <!-- 4 -->
      <g transform="translate(288.540767 296.998906) scale(0.07 -0.07)">
       <use xlink:href="#DejaVuSans-34"/>
      </g>
     </g>
    </g>
    <g id="xtick_17">
     <g id="line2d_35">
      <g>
       <use xlink:href="#m4a5fe8b382" x="318.236733" y="285.18" style="stroke: #000000; stroke-width: 0.5"/>
      </g>
     </g>
     <g id="text_47">
      <!-- 6 -->
      <g transform="translate(316.009858 296.998906) scale(0.07 -0.07)">
       <use xlink:href="#DejaVuSans-36"/>
      </g>
     </g>
    </g>
    <g id="xtick_18">
     <g id="line2d_36">
      <g>
       <use xlink:href="#m4a5fe8b382" x="345.705824" y="285.18" style="stroke: #000000; stroke-width: 0.5"/>
      </g>
     </g>
     <g id="text_48">
      <!-- 8 -->
      <g transform="translate(343.478949 296.998906) scale(0.07 -0.07)">
       <use xlink:href="#DejaVuSans-38"/>
      </g>
     </g>
    </g>
    <g id="xtick_19">
     <g id="line2d_37">
      <g>
       <use xlink:href="#m4a5fe8b382" x="373.174915" y="285.18" style="stroke: #000000; stroke-width: 0.5"/>
      </g>
     </g>
     <g id="text_49">
      <!-- 10 -->
      <g transform="translate(368.721165 296.998906) scale(0.07 -0.07)">
       <use xlink:href="#DejaVuSans-31"/>
       <use xlink:href="#DejaVuSans-30" transform="translate(63.623047 0)"/>
      </g>
     </g>
    </g>
    <g id="text_50">
     <!-- HBA -->
     <g transform="translate(296.013438 308.533437) scale(0.08 -0.08)">
      <use xlink:href="#DejaVuSans-48"/>
      <use xlink:href="#DejaVuSans-42" transform="translate(75.195312 0)"/>
      <use xlink:href="#DejaVuSans-41" transform="translate(143.798828 0)"/>
     </g>
    </g>
   </g>
   <g id="matplotlib.axis_8">
    <g id="ytick_19">
     <g id="line2d_38">
      <g>
       <use xlink:href="#m83eb2e55ab" x="228.962187" y="285.18" style="stroke: #000000; stroke-width: 0.5"/>
      </g>
     </g>
     <g id="text_51">
      <!-- 0.0 -->
      <g transform="translate(211.33 287.839453) scale(0.07 -0.07)">
       <use xlink:href="#DejaVuSans-30"/>
       <use xlink:href="#DejaVuSans-2e" transform="translate(63.623047 0)"/>
       <use xlink:href="#DejaVuSans-30" transform="translate(95.410156 0)"/>
      </g>
     </g>
    </g>
    <g id="ytick_20">
     <g id="line2d_39">
      <g>
       <use xlink:href="#m83eb2e55ab" x="228.962187" y="265.40915" style="stroke: #000000; stroke-width: 0.5"/>
      </g>
     </g>
     <g id="text_52">
      <!-- 0.2 -->
      <g transform="translate(211.33 268.068603) scale(0.07 -0.07)">
       <use xlink:href="#DejaVuSans-30"/>
       <use xlink:href="#DejaVuSans-2e" transform="translate(63.623047 0)"/>
       <use xlink:href="#DejaVuSans-32" transform="translate(95.410156 0)"/>
      </g>
     </g>
    </g>
    <g id="ytick_21">
     <g id="line2d_40">
      <g>
       <use xlink:href="#m83eb2e55ab" x="228.962187" y="245.638301" style="stroke: #000000; stroke-width: 0.5"/>
      </g>
     </g>
     <g id="text_53">
      <!-- 0.4 -->
      <g transform="translate(211.33 248.297754) scale(0.07 -0.07)">
       <use xlink:href="#DejaVuSans-30"/>
       <use xlink:href="#DejaVuSans-2e" transform="translate(63.623047 0)"/>
       <use xlink:href="#DejaVuSans-34" transform="translate(95.410156 0)"/>
      </g>
     </g>
    </g>
    <g id="ytick_22">
     <g id="line2d_41">
      <g>
       <use xlink:href="#m83eb2e55ab" x="228.962187" y="225.867451" style="stroke: #000000; stroke-width: 0.5"/>
      </g>
     </g>
     <g id="text_54">
      <!-- 0.6 -->
      <g transform="translate(211.33 228.526904) scale(0.07 -0.07)">
       <use xlink:href="#DejaVuSans-30"/>
       <use xlink:href="#DejaVuSans-2e" transform="translate(63.623047 0)"/>
       <use xlink:href="#DejaVuSans-36" transform="translate(95.410156 0)"/>
      </g>
     </g>
    </g>
    <g id="ytick_23">
     <g id="line2d_42">
      <g>
       <use xlink:href="#m83eb2e55ab" x="228.962187" y="206.096601" style="stroke: #000000; stroke-width: 0.5"/>
      </g>
     </g>
     <g id="text_55">
      <!-- 0.8 -->
      <g transform="translate(211.33 208.756055) scale(0.07 -0.07)">
       <use xlink:href="#DejaVuSans-30"/>
       <use xlink:href="#DejaVuSans-2e" transform="translate(63.623047 0)"/>
       <use xlink:href="#DejaVuSans-38" transform="translate(95.410156 0)"/>
      </g>
     </g>
    </g>
    <g id="ytick_24">
     <g id="line2d_43">
      <g>
       <use xlink:href="#m83eb2e55ab" x="228.962187" y="186.325752" style="stroke: #000000; stroke-width: 0.5"/>
      </g>
     </g>
     <g id="text_56">
      <!-- 1.0 -->
      <g transform="translate(211.33 188.985205) scale(0.07 -0.07)">
       <use xlink:href="#DejaVuSans-31"/>
       <use xlink:href="#DejaVuSans-2e" transform="translate(63.623047 0)"/>
       <use xlink:href="#DejaVuSans-30" transform="translate(95.410156 0)"/>
      </g>
     </g>
    </g>
    <g id="text_57">
     <!-- Density -->
     <g transform="translate(205.66625 242.952557) rotate(-90) scale(0.08 -0.08)">
      <use xlink:href="#DejaVuSans-44"/>
      <use xlink:href="#DejaVuSans-65" transform="translate(77.001953 0)"/>
      <use xlink:href="#DejaVuSans-6e" transform="translate(138.525391 0)"/>
      <use xlink:href="#DejaVuSans-73" transform="translate(201.904297 0)"/>
      <use xlink:href="#DejaVuSans-69" transform="translate(254.003906 0)"/>
      <use xlink:href="#DejaVuSans-74" transform="translate(281.787109 0)"/>
      <use xlink:href="#DejaVuSans-79" transform="translate(320.996094 0)"/>
     </g>
    </g>
   </g>
   <g id="patch_178">
    <path d="M 228.962187 285.18 
L 228.962187 170.311364 
" style="fill: none; stroke: #000000; stroke-width: 0.5; stroke-linejoin: miter; stroke-linecap: square"/>
   </g>
   <g id="patch_179">
    <path d="M 228.962187 285.18 
L 380.042187 285.18 
" style="fill: none; stroke: #000000; stroke-width: 0.5; stroke-linejoin: miter; stroke-linecap: square"/>
   </g>
   <g id="legend_4">
    <g id="patch_180">
     <path d="M 335.883125 180.270426 
L 347.883125 180.270426 
L 347.883125 176.070426 
L 335.883125 176.070426 
z
" style="fill: #ee6677; opacity: 0.6"/>
    </g>
    <g id="text_58">
     <!-- Actives -->
     <g transform="translate(352.683125 180.270426) scale(0.06 -0.06)">
      <use xlink:href="#DejaVuSans-41"/>
      <use xlink:href="#DejaVuSans-63" transform="translate(66.658203 0)"/>
      <use xlink:href="#DejaVuSans-74" transform="translate(121.638672 0)"/>
      <use xlink:href="#DejaVuSans-69" transform="translate(160.847656 0)"/>
      <use xlink:href="#DejaVuSans-76" transform="translate(188.630859 0)"/>
      <use xlink:href="#DejaVuSans-65" transform="translate(247.810547 0)"/>
      <use xlink:href="#DejaVuSans-73" transform="translate(309.333984 0)"/>
     </g>
    </g>
    <g id="patch_181">
     <path d="M 335.883125 189.077301 
L 347.883125 189.077301 
L 347.883125 184.877301 
L 335.883125 184.877301 
z
" style="fill: #4477aa; opacity: 0.6"/>
    </g>
    <g id="text_59">
     <!-- Decoys -->
     <g transform="translate(352.683125 189.077301) scale(0.06 -0.06)">
      <use xlink:href="#DejaVuSans-44"/>
      <use xlink:href="#DejaVuSans-65" transform="translate(77.001953 0)"/>
      <use xlink:href="#DejaVuSans-63" transform="translate(138.525391 0)"/>
      <use xlink:href="#DejaVuSans-6f" transform="translate(193.505859 0)"/>
      <use xlink:href="#DejaVuSans-79" transform="translate(254.6875 0)"/>
      <use xlink:href="#DejaVuSans-73" transform="translate(313.867188 0)"/>
     </g>
    </g>
   </g>
  </g>
  <g id="text_60">
   <!-- Property Distributions: Actives vs. Decoys - - esr1 -->
   <g transform="translate(92.924062 7.51875) scale(0.08 -0.08)">
    <defs>
     <path id="DejaVuSans-72" d="M 2631 2963 
Q 2534 3019 2420 3045 
Q 2306 3072 2169 3072 
Q 1681 3072 1420 2755 
Q 1159 2438 1159 1844 
L 1159 0 
L 581 0 
L 581 3500 
L 1159 3500 
L 1159 2956 
Q 1341 3275 1631 3429 
Q 1922 3584 2338 3584 
Q 2397 3584 2469 3576 
Q 2541 3569 2628 3553 
L 2631 2963 
z
" transform="scale(0.015625)"/>
     <path id="DejaVuSans-70" d="M 1159 525 
L 1159 -1331 
L 581 -1331 
L 581 3500 
L 1159 3500 
L 1159 2969 
Q 1341 3281 1617 3432 
Q 1894 3584 2278 3584 
Q 2916 3584 3314 3078 
Q 3713 2572 3713 1747 
Q 3713 922 3314 415 
Q 2916 -91 2278 -91 
Q 1894 -91 1617 61 
Q 1341 213 1159 525 
z
M 3116 1747 
Q 3116 2381 2855 2742 
Q 2594 3103 2138 3103 
Q 1681 3103 1420 2742 
Q 1159 2381 1159 1747 
Q 1159 1113 1420 752 
Q 1681 391 2138 391 
Q 2594 391 2855 752 
Q 3116 1113 3116 1747 
z
" transform="scale(0.015625)"/>
     <path id="DejaVuSans-62" d="M 3116 1747 
Q 3116 2381 2855 2742 
Q 2594 3103 2138 3103 
Q 1681 3103 1420 2742 
Q 1159 2381 1159 1747 
Q 1159 1113 1420 752 
Q 1681 391 2138 391 
Q 2594 391 2855 752 
Q 3116 1113 3116 1747 
z
M 1159 2969 
Q 1341 3281 1617 3432 
Q 1894 3584 2278 3584 
Q 2916 3584 3314 3078 
Q 3713 2572 3713 1747 
Q 3713 922 3314 415 
Q 2916 -91 2278 -91 
Q 1894 -91 1617 61 
Q 1341 213 1159 525 
L 1159 0 
L 581 0 
L 581 4863 
L 1159 4863 
L 1159 2969 
z
" transform="scale(0.015625)"/>
     <path id="DejaVuSans-75" d="M 544 1381 
L 544 3500 
L 1119 3500 
L 1119 1403 
Q 1119 906 1312 657 
Q 1506 409 1894 409 
Q 2359 409 2629 706 
Q 2900 1003 2900 1516 
L 2900 3500 
L 3475 3500 
L 3475 0 
L 2900 0 
L 2900 538 
Q 2691 219 2414 64 
Q 2138 -91 1772 -91 
Q 1169 -91 856 284 
Q 544 659 544 1381 
z
M 1991 3584 
L 1991 3584 
z
" transform="scale(0.015625)"/>
     <path id="DejaVuSans-3a" d="M 750 794 
L 1409 794 
L 1409 0 
L 750 0 
L 750 794 
z
M 750 3309 
L 1409 3309 
L 1409 2516 
L 750 2516 
L 750 3309 
z
" transform="scale(0.015625)"/>
     <path id="DejaVuSans-2d" d="M 313 2009 
L 1997 2009 
L 1997 1497 
L 313 1497 
L 313 2009 
z
" transform="scale(0.015625)"/>
    </defs>
    <use xlink:href="#DejaVuSans-50"/>
    <use xlink:href="#DejaVuSans-72" transform="translate(58.552734 0)"/>
    <use xlink:href="#DejaVuSans-6f" transform="translate(97.416016 0)"/>
    <use xlink:href="#DejaVuSans-70" transform="translate(158.597656 0)"/>
    <use xlink:href="#DejaVuSans-65" transform="translate(222.074219 0)"/>
    <use xlink:href="#DejaVuSans-72" transform="translate(283.597656 0)"/>
    <use xlink:href="#DejaVuSans-74" transform="translate(324.710938 0)"/>
    <use xlink:href="#DejaVuSans-79" transform="translate(363.919922 0)"/>
    <use xlink:href="#DejaVuSans-20" transform="translate(423.099609 0)"/>
    <use xlink:href="#DejaVuSans-44" transform="translate(454.886719 0)"/>
    <use xlink:href="#DejaVuSans-69" transform="translate(531.888672 0)"/>
    <use xlink:href="#DejaVuSans-73" transform="translate(559.671875 0)"/>
    <use xlink:href="#DejaVuSans-74" transform="translate(611.771484 0)"/>
    <use xlink:href="#DejaVuSans-72" transform="translate(650.980469 0)"/>
    <use xlink:href="#DejaVuSans-69" transform="translate(692.09375 0)"/>
    <use xlink:href="#DejaVuSans-62" transform="translate(719.876953 0)"/>
    <use xlink:href="#DejaVuSans-75" transform="translate(783.353516 0)"/>
    <use xlink:href="#DejaVuSans-74" transform="translate(846.732422 0)"/>
    <use xlink:href="#DejaVuSans-69" transform="translate(885.941406 0)"/>
    <use xlink:href="#DejaVuSans-6f" transform="translate(913.724609 0)"/>
    <use xlink:href="#DejaVuSans-6e" transform="translate(974.90625 0)"/>
    <use xlink:href="#DejaVuSans-73" transform="translate(1038.285156 0)"/>
    <use xlink:href="#DejaVuSans-3a" transform="translate(1090.384766 0)"/>
    <use xlink:href="#DejaVuSans-20" transform="translate(1124.076172 0)"/>
    <use xlink:href="#DejaVuSans-41" transform="translate(1155.863281 0)"/>
    <use xlink:href="#DejaVuSans-63" transform="translate(1222.521484 0)"/>
    <use xlink:href="#DejaVuSans-74" transform="translate(1277.501953 0)"/>
    <use xlink:href="#DejaVuSans-69" transform="translate(1316.710938 0)"/>
    <use xlink:href="#DejaVuSans-76" transform="translate(1344.494141 0)"/>
    <use xlink:href="#DejaVuSans-65" transform="translate(1403.673828 0)"/>
    <use xlink:href="#DejaVuSans-73" transform="translate(1465.197266 0)"/>
    <use xlink:href="#DejaVuSans-20" transform="translate(1517.296875 0)"/>
    <use xlink:href="#DejaVuSans-76" transform="translate(1549.083984 0)"/>
    <use xlink:href="#DejaVuSans-73" transform="translate(1608.263672 0)"/>
    <use xlink:href="#DejaVuSans-2e" transform="translate(1660.363281 0)"/>
    <use xlink:href="#DejaVuSans-20" transform="translate(1692.150391 0)"/>
    <use xlink:href="#DejaVuSans-44" transform="translate(1723.9375 0)"/>
    <use xlink:href="#DejaVuSans-65" transform="translate(1800.939453 0)"/>
    <use xlink:href="#DejaVuSans-63" transform="translate(1862.462891 0)"/>
    <use xlink:href="#DejaVuSans-6f" transform="translate(1917.443359 0)"/>
    <use xlink:href="#DejaVuSans-79" transform="translate(1978.625 0)"/>
    <use xlink:href="#DejaVuSans-73" transform="translate(2037.804688 0)"/>
    <use xlink:href="#DejaVuSans-20" transform="translate(2089.904297 0)"/>
    <use xlink:href="#DejaVuSans-2d" transform="translate(2121.691406 0)"/>
    <use xlink:href="#DejaVuSans-2d" transform="translate(2157.775391 0)"/>
    <use xlink:href="#DejaVuSans-20" transform="translate(2193.859375 0)"/>
    <use xlink:href="#DejaVuSans-65" transform="translate(2225.646484 0)"/>
    <use xlink:href="#DejaVuSans-73" transform="translate(2287.169922 0)"/>
    <use xlink:href="#DejaVuSans-72" transform="translate(2339.269531 0)"/>
    <use xlink:href="#DejaVuSans-31" transform="translate(2380.382812 0)"/>
   </g>
  </g>
 </g>
 <defs>
  <clipPath id="pd51fec9035">
   <rect x="39.722188" y="21.662727" width="151.08" height="114.868636"/>
  </clipPath>
  <clipPath id="pa46a5cd053">
   <rect x="228.962187" y="21.662727" width="151.08" height="114.868636"/>
  </clipPath>
  <clipPath id="p7b60e43e75">
   <rect x="39.722188" y="170.311364" width="151.08" height="114.868636"/>
  </clipPath>
  <clipPath id="pb0ed668555">
   <rect x="228.962187" y="170.311364" width="151.08" height="114.868636"/>
  </clipPath>
 </defs>
</svg>
